<?xml version="1.0" encoding="utf-8"?>
<!-- Generator: Adobe Illustrator 19.1.0, SVG Export Plug-In . SVG Version: 6.00 Build 0)  -->
<svg version="1.1" id="Layer_1" xmlns="http://www.w3.org/2000/svg" xmlns:xlink="http://www.w3.org/1999/xlink" x="0px" y="0px"
	 viewBox="0 0 580.6 639.7" style="enable-background:new 0 0 580.6 639.7;" xml:space="preserve">
<style type="text/css">
	.st0{fill:#D3D2D1;}
	.st1{fill:url(#SVGID_1_);}
	.st2{fill:#E4F0F9;}
	.st3{fill:#3D3D3D;}
	.st4{fill:#E8F9F7;}
	.st5{fill:#D1AFF9;}
	.st6{fill:#FCAD81;}
	.st7{fill:#F9F382;}
	.st8{fill:#84F7F1;}
	.st9{fill:#5A05D3;}
	.st10{fill:#0F868C;}
	.st11{fill:#C94605;}
	.st12{fill:#194C84;}
	.st13{fill:#333232;}
	.st14{fill:#3A3A3A;}
	.st15{fill:#FFFFFF;}
	.st16{fill:#FFFFFF;stroke:#FCAD81;stroke-miterlimit:10;}
	.st17{fill:#FFFFFF;stroke:#D1AFF9;stroke-miterlimit:10;}
	.st18{fill:#CCCCCC;stroke:#FFFFFF;stroke-width:0.5;}
	.st19{fill:none;stroke:#5A05D3;stroke-miterlimit:10;}
	.st20{fill:#F9E8E8;}
	.st21{fill:#F0F2F2;}
	.st22{fill:#B0E2E0;stroke:#FFFFFF;stroke-miterlimit:10;}
	.st23{fill:#0F868C;stroke:#FFFFFF;stroke-miterlimit:10;}
	.st24{fill:#A2CDF4;stroke:#FFFFFF;stroke-miterlimit:10;}
	.st25{fill:#F19B00;}
	.st26{fill:#B0E2E0;}
	.st27{fill:#A2CDF4;}
	.st28{fill:none;stroke:#3A3A3A;stroke-miterlimit:10;}
	.st29{fill:url(#SVGID_2_);}
	.st30{fill:#B5B4B4;}
	.st31{fill:#C5DCEF;}
	.st32{fill:#C13308;}
	.st33{fill:#FBB20B;}
	.st34{fill:#C67C06;}
	.st35{fill:#F9D998;}
	.st36{fill:#F2F2F2;}
	.st37{fill:#F7CD8B;}
	.st38{fill:#06704B;}
	.st39{fill:#282727;}
	.st40{fill:#E30520;stroke:#E30520;stroke-miterlimit:10;}
	.st41{fill:#FCFBFA;stroke:#E30520;stroke-miterlimit:10;}
	.st42{fill:#E30520;}
	.st43{fill:#B2B1B1;}
	.st44{fill:#C1843A;}
	.st45{fill:none;stroke:#FFFFFF;stroke-miterlimit:10;}
	.st46{fill:none;stroke:#0F868C;stroke-width:2;stroke-miterlimit:10;}
	.st47{fill:#B3F4AE;}
	.st48{fill:#138808;}
	.st49{fill:#FF9933;}
	.st50{fill:#EFC79C;}
	.st51{fill:#60605F;}
	.st52{opacity:0.34;}
	.st53{fill:#D6D6D6;}
	.st54{fill:none;stroke:#000000;}
	.st55{fill:none;stroke:#000000;stroke-miterlimit:10;}
	.st56{fill:none;stroke:#4C4C4C;stroke-miterlimit:10;}
	.st57{fill:#B34981;}
	.st58{fill:#AF543C;}
	.st59{fill:#57263F;}
	.st60{fill:#E22D10;}
	.st61{fill:#B72706;}
	.st62{enable-background:new    ;}
</style>
<path class="st12" d="M571.3,224.8l-0.7-0.3l-0.1-0.7l-1.3-0.1l0.6-0.9l-0.2-0.9l0.6-0.7l0.7-0.1l-2.3-1.6l-2.1-0.5l-1.6-1.5
	l-1.8,1.2l-1.4-0.6l-0.5-0.9l-0.9,0.4l-1.5-0.1l-0.4-1l-1.7-1l-1.6,0.1l-1.3,1l-1,0l-0.7,1.5l-0.5,0.1l-0.5-1.1l-1,0.2l-1.1-0.6
	l2.1-1.6l-0.9-1l0.6-0.6l1-0.1l-0.1-0.7l0.5,0.2l1.3-1.1l-0.4-1.1l2.2-0.7l0.6-1.2l-1.5-2.3l-0.4-1.9l-0.6,0.1l-0.2-0.6l0.9-1.9
	l-1.7,0.9l-1.7,0.1l-1.9,2l-1.6,0.8l-0.4-0.7l0.8-1.1l-0.7-1.4l-0.7-0.5l1.4-0.4l1.4-1.4l1.7-0.2l0.9-1.9l-0.6-0.6l-1.3,1.1l-0.9,0
	l-1.2-1.6l0.1-0.8l-0.5-0.8l-1.5-1.8l-2.4,1.8l-1.5-0.2l-1.6,1.2l-0.4-0.4l-2.7,2.3l-0.8-0.3l-0.2,1l-0.9,0.1l0.2,1.9l-1-0.3
	l-0.3,1.5l-0.6,0.7l-0.8,0.1l-2.8-0.5l-0.3-1.1l-2.5-0.1l-0.4-0.6l-1.9-0.6l0.5,0.9l-2.9-1.2l-1.4,0.4l-0.4-1.7l-1.3-1.4l-1.6-1
	l-1.4,2.6l-2.4,0l-1.1,0.8l-0.3,0.8l-1.3,0.1l-1.4,1.4l-1.1,2.8l-3.1,2.5l-0.2,0.9l0.3,0.5l-1.4,2.3l-1.6-0.8l-1.3,0.8l-0.8-0.5
	l-2.1,0.7l-1.7,0l-0.8-0.5l-0.3,0.7l-0.5-0.5l-2.1,0.8l-0.2,0.7l-0.5,0.2l0.1,0.7l-0.6,1.3l-1.8,1.4l0.9,0.9l-0.2,1.5l-3.8,0.7
	l0.2,0.9l-0.6,0.7l-0.7-0.7l-1.3,1.2l-1.3,0.7l-0.5-0.7l-2.2,1.7l-0.5,1.4l1.5,1.6l-1.3,1.9l-1.2,0.5l-0.9,1.2l-1.1-0.4l-0.9,0.8
	l-0.9-0.4l-0.5,0.6l-1.2,0.4l-1-1.7l-1,0l-3,2.2l-1.4-0.2l-1.3,1.2l-1.1-0.5l-0.7-1.6l-2.2-0.1l-0.9-1l-2.3,0.1l0.4,0.9l0.6-0.1
	l0.6,0.4l0.2,0.8l-0.3,1.3l-1.3,1.6l0.4,0.5l-0.2,0.7l1.5,1.9l0.8-0.4l0.6,0.7l2.7-0.3l1.5,0.5l1.5-0.4l0.7,1.7l0.1,1.6l1.2,0.9
	l-0.4,0.4l-1.2,0.1l0.6,0.9l-0.9,1.3l0.2,2.1l1.3,1.2l0.1,2.4l-0.4,0.7l-0.8,0.3l-1.2-0.2l-1.7-1.2l-0.8,0l-1.1,1.3l-2.2,1l-1.2-0.3
	l-2.5,0.7l-1.6-1l-1.4,1.2l-1.4-0.5l-3.2-0.3l-0.8,0.9l-6.6,0.3l-2.9-0.7l-2.9-2.2l-1,0.1l-1,1l-1.7-0.1l-0.6,0.9l0.1,0.8l-0.8,0.3
	l-3.6,0.7l-1.8-0.3l-0.1,0.7l-0.9-0.2l-0.6,0.3l-0.3-0.8l-0.6,0.3l-1-0.4l-0.3,0.5l-0.5,0l-0.4-0.2l0.8-0.8l-0.2-0.4l-0.4,0.1
	l-1.2-0.8l-1.9,0.2l-0.2-0.6l-1.1-0.2l-0.3-0.5l-2.3,1.1l-2.4,0.2l-0.6-0.6l-0.2-1.2l-0.8-0.2l-0.4-0.8l-1.2,0.3l-0.4-0.4l0.3-0.6
	l-0.7-0.6l-0.8,1l-0.1-3.4l-2.3-0.8l0.7-0.8l0.2-1.3l1.9-0.6l0.4-1.1l-2.2-1.7l-0.8-3.4l1.5-2.2l0.1-3.2l0.6-1l-0.5-1.3l-0.5-0.2
	l-0.1-1.7l-1.6-1.3l-1.6,0l-0.4-0.5l-0.6-0.7l0.1,0.6l-1.2,0.4l-0.3,1l-1.1-0.1l-1.8,1.5l-0.9-0.2l-1.9,0.9l-0.3-0.4l-0.8,0.5
	l-1-0.4l-0.3,0.3l0.1,1.5l1.3,0.6l0.1,0.4l-0.5,0.4l0.5,0.6l-2.9,6.4l0.7,1.5l-0.6,0.5l-0.1,0.7l0.5,0.8l-1,2.5l1.1,0.4l0,0.2l0-0.2
	l-1.1-0.4l0.1,1l-0.5,1.4l0.6,0.4l0.3,1.1l0.8,0l0.3,0.7l0.8,0.4l-0.3,0.8l0.5,0.6l-0.2,0.5l0.7,0.7l0.3,2l-0.5,2.9l-1.2,2.1
	l-0.1,0.1v0l0.1,0l-0.1,2.1l-1.1,1l-0.1,0.6l-0.6,0l-0.1-0.6l-1.2-0.5l-0.7-1.5l-0.8,1.1l-1.1-0.7l-0.4,1.2l-0.6,0.1l-1.1-0.6
	l-0.5,0.9L383,260l-2.7-1.3l-1.9,0.7l-0.5,1.3l-0.5-0.5l-0.9-0.1l-0.2-0.8l-1.8,0.2l-1.4-1l-0.4-2.9l-0.5,0l-0.6,1.2l-1.6,0.3
	l-0.1,0.6l-0.7,0.1l0,0.5l-1.2,0.5l-1.3-0.4l-0.7,0.8l-3.1-1.6l-0.5-0.9l-4.1-1.7L357,255l-0.7,0.6l-0.5-0.6l-1.1,0.2l0-0.5
	l-2.1-0.8l-1.3,0.3l-0.2,0.8l-1.9,1l0-0.9l-0.6,0.1l-1.6-1.1l0-3l-1.9-1.6l-3.5,1.9l-0.9-0.2l-1.4,1.1L337,252l-0.6-1.1l0.4-1.2
	l-3.3,0.2l0.7-0.7l-1.8-0.6l0.2-0.5l-0.3-0.4l-1.4-0.2l-1.2-1.1l-0.7,0.5l-0.4-0.5l-0.3,0.3l-2.2-1l0.6-1l0.3-2.6l-1.4-2.7l-6.3-1
	l-0.8-1.5l-0.9,0.2l-0.1-0.6l-1.1-0.4l0-0.7l-0.6,0.1l-0.4-0.1l0,0.6l-1.3,1.2l-1.8-0.3l-1.2,0.4l0.1,0.8l0.6,0.4l-1,1h0l-4.6-2.8
	l-4.3-0.4l0.3,0.4l-0.3,0.4l0.5,0.5l-1,1.5l-1,0.2l-2.2-2.6l-3,0.1l-1.5-0.4l-0.5-0.7l-3.7,0l0.4-1.8l-0.8-1.7l-0.1-1.2l-5,0.9
	l-4.6-3.5l-1.6-0.5l-1.1-1.3l-1.9-0.1l-0.8,1.5l-0.8,0.1l-3.5-2.8l-1.5-0.3l-2.8-1.8l0.1-0.8l-0.8-1l-1.3-0.3l-0.1,0.8l-1,0.2
	l0.2-0.3l-0.5-0.4l0.4,0l0-0.6l-1.7-2l-0.4-1.6l-2.5-0.5l-0.9-0.6l-0.3-0.8l-0.7,0.4l-1.2-0.7l-0.1-0.6l-0.6-0.3l-0.2,0.4l-1.5-0.8
	l-0.4-0.9l-1.5-0.5l-0.4-1.2l-1.1,0.1l-0.8-1.1l-1.3,0.5l0.5,2l-0.2,0.5l-1.3-1.7l-1.8-0.2l-0.8-1.4l-1.2-0.6l-0.1-0.6l-0.7,0.1
	l-1.9-1.6l-0.9,0l-0.2-1.9l0.8-1.5l0.3,0.1l0.3-0.6l0.2-2.1l0.8-0.8l0.9,0.4l0.7-0.5l-0.5-1.7l0.9,0.3l0.4-2.4l-0.7-0.8l-0.1-1
	l-0.6-0.4l0-0.7l1.1-0.2l-0.3-0.5l1.2-0.9l-0.1-0.7l0.7-0.2l0.6-0.7l0.2-1l-0.7-0.8l-0.3-1.7l1.3-1.2l1.1,0.2l1.1-1.1l1-2.4l1.4,0
	l1.4-1.1l0.3-0.9l2.2-1.7l-0.3-0.9l0.9-1.2l1.5-0.5l0.5,0.2l0-0.4l-4-1.5l-1.4-1.7l-2.9-2l-1.1,0.7l-2.4-1.7l-0.6,0.1l-1.2-0.9
	l-1.7-0.3l-0.1-1.5l-0.5-0.6l0.8-0.6l0.3-0.9l-0.3-0.6l-0.6,0l-0.6-1.1l-1,0.7l-1.1-1.4l-2.5-1.1l-1.2-1.9l-1,0l-1.2-0.6l-0.7,0.5
	l-1-0.1l-1.3,1l-1.1-0.7l-0.6-1.5l-1.7,0l-0.6-1.8l-1.1-0.3l-0.8-0.9l-0.2-1.4l-0.7-0.5l0.3-1l-1-1.3l-1.3-1.9l-1.6-0.7l-1.1,2.4
	l-1.3,0.7l-0.4,1.6l-1.5-1.6l0-1.1l-1-0.4l0.4-1.2l-0.9-0.8l-0.6,0.1l-0.2-0.8l2.4-2.2l-1-1.7l-0.9,0l-0.4-1.1l0.3-0.5l-0.6-0.7
	l1.5-4.6l-0.8-0.2l-1.6-2.2l-1-0.3l-0.4-0.8l0.4-1.4l-1-0.7l-1.9,0.1l0.5-0.8l0-1.5l1.1-1.5l-1.5-0.9l0.1-0.9l-0.7-0.3l0-1l0.8-0.5
	l0.6,0.1l1.1-0.9l1.6,0.1l0.6-1l1.8-1.1l0.7,2.2l-0.3,0.7l0.3,2.1l2.6,2.4l1.2,0.6l1.4-0.9l1.1,0.3l0.4-2.1l1.5-1.1l1.1-0.3l1,0.8
	l2.6-2.2l1.9-0.5l0.4-1.4l-0.6-2l-1.2-1l-0.4-2l-1.8-2l0-1.2l1.2-2.7l-0.1-0.7l-4.3-0.3l-2.1-0.9l-0.2-1.5l-2.8-2.6l0.4-0.7
	l-0.2-1.5l0.2-1.3l1.4-0.6l1-0.9l0.3-1.3l-1.3-2.1l-0.8-1.3l-0.7-1.4l-0.4-1.6l0.5-1.1l1.1-0.3l1.8-0.3l1.3-0.6l2.1,0.7l1.8,0.5
	l1.1-0.5l1.9-2.1l0.8-3.4l-0.5-1.9l-0.8-1.5l-0.2-1l0.9-0.8l1.9-0.1l1.3,0.1l0.3-1.2v-1.8l2.4-0.9l1.7-0.7l1.5-0.7l0.4-2l0.6-1.3
	l0.7-1.7l0.7-1.8l-0.1-2.4l0.2-1.4l0.9-1.3l0.1-1.1l0.8-1.6l0.1-1.2l-0.3-1.6l0.5-1.6l-0.5-1.5l-1.9-1.4l-1.6-0.8l-1.1-1.8l-1.2-1.9
	l-1.3,0.5l-1.8,0.8l-2.2-0.6l-2.8-0.6l-1.5-0.4l-1.2-1.4l-2.3-1.8l-1.8,0.5l-1.1,1.2V49l-1,0.6l-1.6-0.9l-2.6-0.8l-3.2,0.3l-1.8,1.4
	l-2,0.8l-2.5,0.5l-2.1,2.2l-1.9,3.3h-2.6l-3.2,0.4l-3.7,1.5l-3.2-0.5l-0.9-1.7l-0.8-2.4l-2-2.1l-3.4-1.3h-3l-2.5-0.5l-1.1-1.5
	l-0.6-1.7l0.5-1.3l-0.1-1.6l-2.1-2.3l-2.5-0.3l-1.5-1.3l-2.4-2.5l-3-1l-2.6-2.4l-3-1.5l-3.1-2l-1-2l-2.4-2.7l-1.8-2.6l-1.6-2.3
	l-1.5-0.7l-1.5,0.5l-1.4,1.1l-1.6,0.1l-2.2,0.1l-1.1-1.3l-2.4-0.8l-1.6-0.3l-2,0.2L131,21l-2,1l-1.3,0.6l-1.6,0.7l-1.6,0.4l-1.2,1.5
	l-2.4-0.5l-1.6-1.5l-1.9,0.3l-0.8,1.1l1.5,0.8l1.7,1.9l-1.9,0.5l-4-0.2l-3.6-0.4l-2.8-0.3l-1.8,1.2l-0.8,2.6l-2,2.6l-2.1,2.3
	l-2.3,1.9l-2.2,1.6L95.5,41l-0.4,1.5l0.5,1.5l-0.5,1l0.1,2l0.7,1.1l2-0.1l1.8-1.2l2.8,0.6l2.5,1.2l0.6,2.4l0.8,1.6l1.7,1.6l3.2,0.3
	l1.8,0.5l2.2,0.3l1.9-0.1l0.9,2l-0.5,1.1l-1.3,0.8l-0.4,1.5l0.6,1.4l1.1,0.8l1.8,0.5l1.7,1l1.1,1.6v1.8l-0.2,1.7l-0.4,2.7l-0.9,0.8
	l-3,0.1l-1.2,0.2l-1.2,2.1l-0.1,1.7l-1.5,0.6l-2.1,0.5l-1.2,1.3v1.6l-0.3,2.3l0.9,2.3l0.3,2.1l-0.1,2.6l1.4,1.4l0.7,2.8l-0.9,1.1
	l-0.1,1.3l1.4,1.4l-0.1,1.4l-0.5,1.1l0.7,2.9l-1,1.2l0.3,2.8l0.8,1.6l-0.5,2.3l1.3,1.1l1,1.5l0.6,2h2.9l1.9,0.8l2.3,0.5l1.5,1.2
	l1.9,0.8l1.3,0.9l2.6,0.3l1.1-0.7l1.6-0.4l0.5-1.5l1.1-0.4l-0.9,2.8l0.5,1.4l-0.7,1.1l1.1,2.9l2.6-0.3l2.8,1.1l1.1-1l0.9,0.3
	l1.1,1.5l0.9-0.2l0.1,0.4l2.4,1.5l0.9,1.6l-0.1,0.8l-2.4,3.3l-0.8-0.7l-0.6,1.1l-0.9-0.3l-2.1,1.2l-1.5-0.8l-1,0.3l-0.1,0.6
	l-0.9,0.6l-0.2,1l-1.2,0.1l-0.2,0.3l-0.5-0.5l-0.1,0.7l-0.8,0.2l-0.7,0.8l-0.4-0.1l-0.8,1.3l-0.1,1.7l-0.6,0.2l0,0.5l1.6,3.5
	l0.1,0.8l-0.7,0.7l1.2,0.3l0.3,0.6l-1.7,3.6l-0.8,0.6l-0.1,3l0.7,0.4l0.2,0.8l0.6-0.2l0.1-0.9l0.6-0.1l0.2,0.4l0.9-0.2l0.3,0.8
	l-0.4,0.8l-1,0.3l-1.2-0.5l-0.4,1.7l-1.3,0.6l-1,1.3l-1,0.5l0,0.9l-0.9,0l-0.6,1.1l0.2,0.4l-0.7,0.3l0.4,0.8l-1,0.2l-1.6,1.9l-0.6,0
	l-0.2,0.6l-0.3-0.2l0,0.8l-0.5,0.5l0.2,0.6l-0.8-0.2l-1,0.8l-0.4,1l-0.5-0.1l-0.1,0.9l-0.5,0.1l-0.6,1.1l1.7,2.4l0.2,1.5l0,1.6
	l-1.4,1.6l-0.1,1.7l12.1,0.6l2.5,0.9l0,0l-2.5-0.9l-12.1-0.6l0.1-1.7l1.4-1.6l0-1.6l-3.4,2.8l-3.4,1L110,183l-2.3,8.4l-3.5,6.8
	l-1.7,2.2l-1.1,2.6l-4.4,2l-6.3,3.7l-1.6,2.2l-2.3,6.7l-3.6,3.3l-1.2,1.7l-0.7,3.7l-4.6,1.9l-4.8,0.1l-2.6,0.5l-7.5,3.1l-2.4-0.4
	l-1.5-2.6l-0.1-1.6l-2.1-2.3l-1.5-0.3l-2.3,0.6l-4,3.8l-0.9,1.5l-1.8,4.5l-1.5,1.2l-1.4,2.1l-5.5,5.1l-1.2,3.2l-0.6,4.5l0.5,1.2
	l4.1,2l1.8,1.3l1.2,0.2l3.6-0.4l1.9,1l0.3,1.4l-0.2,5.2l-1.7,3.6l0.3,2.8l3.5,5.2l2.3,0.8l2.6-0.3l1.6-0.6l0.9,0.2l0.4,3.8l-0.3,2.7
	l1.3,1.4l0.4,1.2l2.5,2.6l1,4.4l3.1,5.3h0l-1.7,1.1L64,299l0.3,0.4l-0.1,1.7l2.1,0.2l0.2,0.6L65,303l-0.9-0.3l-0.7,0.3l-1.4,1.2
	l0.2,0.7l-1.7,0.7l-2.9-0.1l-1.6-0.6l0.3-1.2l-0.3-0.7l0.8-1.2l-0.7-0.4l-8.8,2.7l-1.1,2.1l-1.1,0.6l-5.3-0.2l-2.4-2.2l-1.9,0.5
	l-3.7-0.5l-2.1,0.9l-2.1-0.7l-1.8,0.9l-1-1.1l-1.1,1.7l-0.8-0.3l-0.4-2.1l-1,0.3l-0.4,6.9l-3.9,0l-0.2,0.3l0.4,0.5l0.6,0l0.1-0.4
	l0.5,0.6l0.8-0.1l-1.7,0.8l-0.5,0.9l-0.6,0.2l0.2,1.4l1.5-1.7l2.1-0.4l0.4,0.3l-1.4,0.7l-0.6,1.1l-2.1,1.4l-0.1,0.8l-0.4-0.1
	l-0.2,0.5l0.3,3.5l0.6,0.9l0.5,0l0,0.7l0.9,0.1l0.6,0.7l0.1,1.7l0.6-0.1l-1.7,0.8l0.1,0.4l3.2,2.8l1.1,0.3l7.4,4.7l3,0.2l2.3,1.1
	l1.6-0.4l0.9,0.7L38,336l1.2,0.5l0.9-1.6l0.9-0.6l6.4-1.5l-0.2-0.7l0.7,0.4l1.1-0.3l0.3-0.5l2.1,1l0.8-0.4l0.3-1.7l0.7-0.7l1.1-0.3
	l-1.4,3l-1.3,1.3l-1,2.3l-1,0.5l-0.2,1.5l-1.5,2.3l-1.9,0.1l-0.5-0.3l-1.7,0.7l0.1,0.7l-0.5-0.3l-1.2,1.3l-0.7-0.2l-0.7,1.1
	l-0.7-0.9l-0.3,0.2l-0.3-0.9l-1.1,0.5l0.5,0.2l0,1l-0.7,0l-0.2,0.7l-1.8,0.1l-0.2-1l-1-0.6l0.5,1l-0.7,1.1l-1.3,0.4l-1.6-0.3
	l-0.3,0.8l-1.7,0.7l-1.4-1.1l0.9-1.8l-0.2-0.5l-2.4,0.6l-0.5-0.8l0.8-0.8l-0.3-0.2l-1.6,1.4l-0.9,2.1l0.4,1.5l5.3,6.1l9.1,8.3
	l0.4-0.7l-0.5-0.4l0.4-0.2l-0.8-0.8l0.9,0.1l0.3-0.4l0.5,1.5l-1,1l7.4,8.7l6.5,5.1l3.4,1.7l1.1,0.1l0,0l2.9,1.5l1-0.3l-0.1-0.3
	l0.3,0.2l0,0l1.4-0.6l2.2,0.2l0.3-0.3h1.1l0.1-0.5l1-0.5l3.4-1.1l-0.1-0.4l1.2,0.1l1.5-1.1l0-0.5l1,0l2.9-1.4l1.8-0.4l-0.2-0.4
	l0.4-0.3l3-1l0.7-1.3l-0.1,1.1l0.2-0.4l1.8-0.9l-0.6-1l0.3-0.6l-0.4-0.5l0.6,0.4l0.3-1l1.9-2.2l1.6-3.9l-0.8-2.3l-0.2-3.3l-0.6-1
	l0.3-1.4l0-0.8l1.2-1.1l0,0.9l-0.2-0.2l-0.9,0.5l0.7,2.4l0.9-4.1l0.4,0.1l0.2-1.2l0.4,0.7l0.3-0.4l-0.6-0.8l-0.1-1.4l0.8,1.5
	l0.3-0.6l-0.1-1.4l-0.8-0.3l0.4-0.8l-0.6-0.4l0.4-0.3l0.6,0.6l-0.4,0.8l0.8,0.4l0.7,1.3l0.4,0l-0.1,0.8l1-1.6l0.1,0.6l1.8-0.9l1,1
	l1.2,0.2l1.8-1.1l0.4,0.8l0.6-0.1l0.4-0.6l-0.2,0.9l-0.5,0.2l-1.3-0.5l-1.1,1.5l-2-0.9l-1.3,0.3l-0.7,1l-0.9,4l0.3,2l1,0.7l-0.6,1.8
	l-0.6,0.7l0.6,0.8l3.8-0.5l0.8,0.5l1.1-0.1l-0.9,0.5l-1.7-0.1l-1.4,0.7l-0.6,1.3l0.5,1.2l1.1-1l0.4,0.2l-0.6,0.2l-0.6,1.8l1-0.6
	l-1.4,1.7l-0.7,1.9l0.6,1.4l0.2,3l0.6-0.3l0.2-1.4l1,0.2l-0.3,1.4l1.3,0.1l-0.9,0.4l0.9,2.3l0.4-0.2l0,1l2,6.3l-0.2,1.8l-1.2,2.6
	l-1.3,1.9l-0.3,3.4h0l-0.6,1.1l0.2,1.9l-1,0.7l0.3,1.3l-0.6,0.1l0,0.4l0.7,0.9l1,4l-0.5,0L97,402l0.9,0.7l0.4-0.4l-0.1,0.7l-0.7,0.6
	l0.3,1.8l0.8,0.9l-0.4,1.1l0,2.3l0.9,1.5l-0.2,1l0.4,0.1l-0.2,0.4l-0.2-0.2l-0.4,1.5l0.6,0.2l-0.3,1l0.7-0.7l0.3-1.6l0.9,0.2
	l0.9-0.7l0.1-0.6l0.6,0l0.2,1.2l0.6,0l-1,0.7l-0.5-0.2l-0.3,0.6l0.4,0.8l-1,0.1l0.4,1l1.2-0.3l-0.1,1.1l-0.2,0.4l-0.6-0.8l-0.5,0.7
	l-0.9-0.2l-0.3,2.2l1.4,3.1l-0.6,1.4l0.6,1.7l-0.2,0.6l0.7,0.4l0.8,1.3l1.2,0.1l0.5,0.8l0.1,1.6l-0.6-0.7l0.3-0.7l-1.7-0.4l-0.3-0.8
	l-0.6,0l-0.1,1.2l1.1,0.5l-0.3,1.3l0.6,1.1l-0.3,0.4l0.9,1.4l-0.2,0.8l0.6,1.1l0.2-0.1l0.2,1.8l0.9,1.8l-0.4,0.4l0.3,1.1l0.8,1.1
	l-0.6,0.5l0.9,1l0,1.3l0.4,0.1l-0.7,0.7l0.8,0.4l0.7,1.5l-0.3,0.5l-0.1-0.4l-0.6,0.1l0.7,0.6l0.8,3.1l0.6,0.7l-0.8,1l0.6,0.3
	l-0.2,0.5l0.4,0l-0.3,1.9l0.7,1.7l0.2,3.3l0.3,0.1l-0.4,0.7l0.5,0.7l-0.5,0.2l0,0.9l0.9,1.5l0,0.8l0.8-0.1l-0.7,0.8l0.4,0l0.9,3.2
	l0.6,2.5l-0.2,0.3l0.5,0.4l0.5,2l1.5,0.5l1.6,3.1l-0.5,0.2l0.1,0.4l2.4-0.3v0l-2.4,0.3l1.3,2.2l0.7,2.4l0.8,0l-0.3,0.7l1.2,0.2
	l0.9,0.7l-0.4,0.4l-1.8-0.3l1.1,1l0.6-0.2l0.4,0.8l1,3.7l-0.7,1.2l1.1,0.4l1.7,2.1l-0.2,0.8l1,0.4l0,0l0.3,1l0.4,0l-0.1,0.8
	l-0.5,0.1l2.1,1.6l0.6-0.6l0.6,0.7l0.4,1.5l-0.3,0.3l0.5,0.5l0.3,1.6l0.9,0l0.2-0.6l0.5,0.4l-0.8,0.6l1.7,5.5l0.6,0.8l0.6,3.2
	l0.6,1.1l0.7,0.4l0.7,1.6l1.2,4.6l0.5,5.6l2.4,9.7l0.9,1.9l2.4-0.7l0,0l-2.4,0.7l2,5l4,7.9l0.4,1.8l0.6-0.4l0.7,0.4l1.7,2.9l1,0.4
	l2.6,3l1.4,4l1.3,0.6l1,1.8l2.3,6.5l1,4.4l3.6,8l2.4,7.8l0.4-0.1l-0.7-3.2l1.1,1.3l-0.3,1l1.3,2.7l0.3,0.1l-0.2-0.6l0.3-0.1l0.7,1.1
	l0.1,3.1l0.6,0.1l-0.2,1l0.4-0.1l0.2,0.8l-0.3,0.9l1.6,0.7l-2.3,0.1v0.4l-0.5-0.4l0.8-3l-0.4-0.4V594l-1.4-1.3l-0.9-1.5l-0.4,0.1
	l1.9,10.6l3.5,7.7l0.5,2.2l1.6,1.3l6.6,8.7l2.3,1.4l0.5-0.7h0l-0.5,0.7l4.2,3.5l4.5,0.9l0.5-1.1l3.3-0.8l1.1-1.4l5.1-2.4l-0.3-0.2
	l0.3-0.8l1.3-1.5l0.2-1.8l-0.8,0.1l0.2-1.4l1.2-1.8l1.2-0.1l-0.8-0.5l-0.6,0.1l0.2-2.1l0.8-1.5l3.9-2.9l3.2-0.4l1.5-0.5l-0.3-0.3
	l0.3-0.4l1.2,0l0.2-0.4l2.8-0.9l1.6-0.3l2.7,0.2l1.9-0.4l-2.4-0.4l-2.4-2l-0.8-1.4l0.7-2.5l1.1-2l2.5-2.8l0.6-1.5l2.2-2l-0.7-1l0-1
	l1.3-2.3l1.7-1.1l6.9,0.8l1.8,0l0.8-0.4l-1.5-10l-1.7,0v0l1.7-0.1l0.9-3.2h0.1l-0.3-7.3l-1.5-4l0.8-4.7l-0.7-0.6l-0.9,0.3v0l0.9-0.3
	l0.5,0.9l0.9-2.3h0l0.9-2.7l5.2-8.1l1.9-6.2l0.8-7l0.9-2.6l-0.4-2l0.3,0.1v-1l-0.4-0.3l-1.5-4l0.1-3.5l-2.2-5.9l1.3-9.2l-1.6-2.8
	l-1.3-6.8l1-4.6l1.9-3.1l1.3-4.1l1.3-1.5l1.8-1.2l2-1l2.9-0.6l2.3,0.8l0.1,0.5l-0.3,0l-0.2,0.7l0.8,1.3l2.8-0.4l0.9-0.8l-0.4-0.8
	l0.3-0.4l2.7-2.8l-0.1-0.9l2.4-5.2l2.4-1.2l2.8-0.3l3.4,1l4.3-1.7l7-3.4l-0.6-1.4l-0.4-0.1l0-0.9l-1.6-0.7l0.8-0.5l0,0l-0.8,0.5
	l1.6,0.7l-0.2-0.4l1-0.1l0,0l0,0l0.8-0.5l0.2-2.3l-0.8,0.2l-1.1-0.9l-0.1-0.9l0.4-0.2l0.5-1.8l1.4-1.7l4.6-3.5l11.6-5.9l2-2.7
	l0.8-1.7v-0.7l2.8-2.1l1.1-1.4l2.9-1.9l7.8-3.9l0.1-0.8l4.4-4.1l2.1-3.2l1.7-1.6l0.6-1.7l3.4-3.9l-0.8-0.5l-0.5-0.5l0.2-0.6
	l-0.7-0.1l0,0l0.7,0.1l-0.2,0.6l0.5,0.5l0.8,0.5l1.2-2.1l1.7-1.7l2.9-2.1l1.5-1.6l4.7-3.3l5.3-2.7l13.5-4.4l-1.3-1.4l-1.1-0.1
	l0.2-0.5l0.8-0.2l1,1.5l0.9,0.2l0.4-1.2l2.7-3.5l2.4-1.1l1.9-1.7l0-0.9l-1-0.3l1.1-2.7l5-3.5l-0.9,0.3l-1.3-0.3l-1.7,1.2l0,0
	l1.7-1.2l1.3-0.1l-0.2-1.1l-2.3,0l-0.9,0.3l0.1-0.3l1-0.5l1.5,0.3l0.2-0.8l-2.8-6.5l0-1.1l1.3-2.5l1.7-1.9l2.5-2l1.7-0.8l3.4,0.1
	l2-1.3l0,0l4-1l1.2-0.9l0.7,0.1l1.9-2l0.8-0.1l1-1.2l1.4-3.1l0.2-0.1l2.4-1.8l-1-1.8l-2.4-0.3l-1.3-1.2l0-2.2l-1.1-1.6l0.8,0.1
	l0.4,0.6l0.2,2.5l0.5,0.8l1.2,0.5l1.1-1.7l-0.7,1.9l1.8,0.3l0.7,0.7l0.4,1.9l-0.3,1.1l-1,1.3l0.5,0.7l-0.3,1l1,2.4l1.1,0.2l-0.3-1.1
	l1.1-0.8l0.8-0.2l0.2,1.2l0.5,0l0.1-1.8l0.4-0.4l2-0.5l-0.6,1.1l0.6,0.5l0.2-1l0.6-0.1l0.1,0.4l0.6-0.5l-0.2-1.3l0.7-1.5l-0.3-1.3
	l1.2-2.1l1,0.1l0.1-0.7l1.1-1l0.4-1.6l1.1,0.2l-0.6-0.7l0.2-1.9l-0.3-0.6l0.5-0.8l1.3-0.5l0.4-0.8l-0.5-0.2l0.5-1.5l-0.8-1.5
	l0.8-0.7l0.2-0.6l-0.4-0.3H408l0.1-1.3l-0.4-0.9l-0.7-0.2l0.1-0.8l-0.4-0.3l0.5-0.1l-0.1-1.9l1-0.6l0.8-1.3l0.4,0.2l0.2-0.6
	l-1.5,0.1l-0.1-0.5l-1.2,0.1l-0.7-0.5l-0.1,0.7l-0.3,0l-1.5-0.8l-0.4-0.9l0.9-0.3l-0.2-0.8l0.6-0.3l-0.1-1.2l0.2-0.5l0.5,0l0.1-1.1
	l-1.1,0.3l-1.6-1.5l-0.3-1.2l-1.2,0.2l0.2-0.7l-0.6-0.1l0.3-2.6l-0.4-0.4l0.8-0.7l-0.5-0.9l1.6-0.2l0.8-0.9l0.6,0l0.1-1.4l0.7-0.1
	l-0.2-0.5l-0.6,0.3l0-2.1l-0.5,0l-0.1-0.4l0.3-0.1l-0.2-1l0.6-0.7l0.1-1.6l-0.6-0.7l-1.4,0.1l-0.8-0.4l-0.3,0l-0.3,0.6l-0.5-1
	l-1.5-0.7l-2.2-0.1l-1.1-1.2l-1.4-0.5l-1-0.9l-2.6-3.4l1-1.1l0.1-1l0.7-0.2l0.3-0.9l0.3,0.3l0.2-0.9l0.5-0.2l-0.7-1.6l1.7-0.5
	l0.7,0.9l0,0.9l0.3-0.4l0.9,0.6l0.4-0.6l-0.4-0.4l0.3-0.6l1.1-0.1l-0.1-0.5l1.1-1.4l-0.3-0.3l0.3-0.6l-0.2-1l0.4-0.3l-0.3-1.1l1-0.3
	l1.3,0.7l1-0.6l1.8-0.1l0.8,0.7l0.4-0.3l0.6,0.4l0.8-0.8l1.5,0.9l0.5-0.4l-0.2-0.7l0.5,0l0-0.8l1-0.7l-1.6-0.2l-0.4-0.7l-0.3,0.3
	l-0.9-0.8l0-0.6l-0.5-0.3l0.4-1.3l-0.6-1.1l-0.9,0l0.1,0.6l-1.1-0.1l-0.2,0.6l-0.9-0.1l-0.8-0.8l-0.6,0.2l-1.6-1.1l0.1-0.5l-1-0.3
	l0.2-1.3l-1-0.2l-0.5-0.9l-2.1-1.4l0-0.6l-1.2,0.5l-0.4-0.3l-0.7,0.5l-0.7-0.5l-0.2-2l-0.4-0.5l1.1-2.1l0.8-0.3l-0.3-0.2l0.2-0.8
	l-0.5-0.2l0.4-1.4l1.3-0.9l2-0.7l0-1.3l1.2-0.7l-0.2-0.3l0.6-0.1l0.4-0.8l0.6,0.5l0.7-0.2l-0.8-2.2l-2.2-0.6l-0.2,0.9L397,258
	l0.8-2.5l0.7-0.9l0.4,1.9l1,0.1l0.8,1.3l0.7-0.2l-0.1,0.7l0.8,0.2l0-0.5l0.5,0l0.1,0.8l1.5,1l-0.4,0.2l0.4,1l0.9-0.4l0.2,1.1
	l0.7-0.3l0.4,0.3l0,0.9l0.5,0.5l0.7-0.1l-0.3-0.8l0.4-0.3l0.9,0.1l0.7,1l1.9-0.3l-0.1-0.8l-0.6,0.2l-0.8-0.4l0.3-0.5l-0.3-0.5
	l-0.4,0l-0.1-0.2l-0.8-0.1l-0.2-0.9l0.4-0.5l0.3,0.2l0.2-0.7l1.5,1.4l1,0l-0.1,0.7l0.4,0.6l-0.3,0.4l1,0l-0.7,0.8l0.7,1l-0.1,1.2
	l0.4,0.9l1.3,0.3l0.8,0.7l-0.2,0.6l0.5,0l0,0.4l1.3,0.8l0.9,0.1l0.6-0.8l0.2,0.8l2,0.1l0,0.7l0.7,0l0-1.2l1.4-0.8l-0.4-0.9l-0.4,0.4
	l-0.3-0.3l0.7-0.4l-0.7-0.8l0.4,0.1l0.1-0.5l0.8,0.1l-0.4-1.1l0.7,0.2l0.1,0.4l0.4,0.7l0.4,0l0,0l0.6,0.2l0.4,0.6l-0.2,0.4l0.7,0.5
	l0.1,0.6l-0.5,0.4l0.5-0.1l0.4,1.2l0.3,0.1l0-0.6l0.7,0.7l-0.7,0.3l0.2,0.4l0.7,0.1l-1.5,2.6l0.6,1l-0.2,1.1l1,2.2l-0.3,2.1h0l0,2
	h0.9v-1.4l-0.9,0.2l-0.8,1.9l0.4,1.6l-0.3,0.3l2.6-0.2l2.8,1.6l4.3,0.7l2.1,1l1.2-0.6l3.4,0.1l0.9,0.4l0.9-0.6l1.6,0.6l4.1-0.9
	l3.7-0.1l1.3,0.7l1.5,0l1,0.8l2.8-0.9l-0.2,0.6l0.7,0.5l1.2-0.8l0.7,0.2l0.2-0.6l0.6,0.2l5.5-0.5l3.2,2l2.2,0.4l0,0.5l1.1,0.4
	l0.3-0.1v0l-0.3,0.1l0.3,1.2l0.7-0.1l0.3,0.4l-0.4,0.1l0.3,0.2l0.4-0.3l0.3,1.1l-0.2,0.6l-0.8-0.1l-0.3,0.5l-0.8,0l-1.8-1.5
	l-1.1,0.4l1.1,3.4l-0.9,1.7l-0.4,3.2l-0.9-0.4l-0.6,0l-0.1,0.5l0.4,1.5l-0.6,0.1l-0.4,0.9l-2.8-0.1l0.4,1.4l-0.7-0.7l-0.7,0.4
	l0.4,1.4l-0.6,2.6l-0.4,0.1l-0.9-1.3l0.1-0.6l-0.6,0.4l-1.4-0.8l0.4,2.2l-0.6,0l-0.9-0.6l-0.3-1.3l-0.4,0.3l0.2,0.6l-0.5,1.8
	l-1.7,0.6l-3.2-0.7l0.4,1.2l-0.4,1.6l-1.4-0.5l-0.1,0.5l-0.3-0.2l-0.2,0.4l0.1,0.8l-0.8,0l0.3,0.3l-0.3,0.6l0.5,0.9l-0.6,2.1
	l-0.6-0.3l-0.7,0.3l0,1l1,0.1l-0.2,0.8l-0.7-0.5l0.1,1.4l0.6,1.1l0.4,0l-0.2,0.6l0.9,0.6l0.8,2.8l0.6-0.2l-0.5,0.9l0.5,0.4l-0.3,0.2
	l0.5,0.8l0,2l0.9,1.9l0.9,0.1l-0.6-2.5l0.7-1.6l0.7,0l0.5,0.9l-0.2,0.5l0.7,0.1l-0.3,0.6l1.3,3.8l0.7,0.3l0.9-0.7l0.9-0.2l0.5,0.3
	l1-1.6l0.7-0.1l0.4-0.5l-1.2-3.8l1.4-2.5l0.7-0.9l0.3,0.1v-0.7l1-0.3l-0.4-4.2l0.5-1l0.5,0l0.8,1.5l0.9,0.3l1.8-2l0.3-0.1l0.1,0.7
	l0.6,0.3l0.1,0.8l0.4-1.4l0.4-0.1l0.5,0.7l-0.3,1.3l0.4,0.1l0.4,3.2l1.1,2.3l-0.1,0.8l0.7,1.6l-0.9,0.2l0.1,2.7l0.5,1l-0.4,2.6
	l0.9,0.3l0.2,0.7l0.3-0.1l0.2,1.5l0.5,1.5l0.5,0.3l0.4,1.7l0,1.9l1.6,8l-0.1,1.1l-0.4-0.4l-0.3,0.2l0.7,1.5l0.1,1.7l1.4-0.8l0.3-2.7
	l0.4-0.1l2.4,1.8l0.4,0l0.8,2.5l0.4-1.5l0.5-0.3l0.6,1l0.4,0l0.1-2.4l1,0l-0.4-2l0.6-0.3l1.5,0.7l0.3-0.5l-0.4-1l1.2-0.3l-0.3-3.4
	l-0.9-0.7l-0.2-1.2l-0.4-0.2l0.6-1.4l-1-2.3l0.4-0.7l-0.3-1.4l0.3-0.1l0.4-2l0.6-0.1l-0.8-1.7l0.1-1l1.2-0.3l1.1,1.1l0.9,0l1.8-2.8
	l-0.4-0.2l0.4-1.5l-0.6-2.7l0.9-0.7l-0.3-0.9l0.9-5.2l-0.8-1.7l-0.1-3.5l-1.2-1.2l0.1-1.4l-0.1-0.8l0.4-0.2l1.2,0.4l1,2.2l0.9,0.6
	l0.9-0.9l0.8,0.4l0.3-0.9l2.6,0.1l1.1,1.7l1.7-0.6l0.9,0.1l2.7,1.2l0.5,1.1l0.7-0.2l0.2-1.7l0.5-0.1l0.9-2.2l0.3-2.6l1.3-2.6l0-1
	l1.1-0.8l-0.3-0.4l0.7-0.5l0-1.4l0.5-0.1l0.7-1.7l1.3-1.2l0.4-1.8l1.2-0.1l0.5-2.5l1.6-2.1l-0.3-0.8l0.8-1l0.1-2.3l-3.1-1.7l0.9-3.6
	l0.8-0.6l0.2-0.9l2.5-0.8l0.7-1.4l1.1-0.1l-0.3-0.6l0.6-0.4l0.3-1.2l2.2-2l-0.7-2.3l0.1-0.8l0.3-0.6l1.3-0.7l1.5-2.4l-1.3-0.6l0-1.3
	l0.5-1l-0.4-0.5l0.3-3.2l-0.6-0.3l0-0.6l-0.7-0.7l1.7-2.5l0-0.8l1.6-1.4l1.2,0.6l2.4-0.9l2-2.8l1.5,0.2l1.2-1.9l1.1,0l1.5-3.3h1.3
	l1.1-0.2l1.9-2.8l3.8-1.8l4.5-0.5l1,0.4l1.7-1.6l1.7,0.1l0.3-0.3l1.7,0.6l1.1,1.8l0.4,0.1l0.1,0.7l-0.5,0.4l0.2,0.6l2.1,0.6l1.7,1.2
	l0.7-0.3l0.7,0.4l0.5-0.7l-5-7l0.5-1.5l-0.8-2l0.9-1l0.7-0.1l1-1.7l1.3,0l0.1-0.9l3-2.5l1-0.4l0.2,0.9l1.3-0.1l-0.2-1.9L571.3,224.8
	z M59.1,372.5L59.1,372.5l0.6,0.6h0L59.1,372.5z M62,377l-0.5-0.2l0,0.5l-0.4,0l0.2,0.2l0.6,0.9l-0.8-1.1l0.4,0l0-0.6L62,377l0-0.2
	h0L62,377z M60.5,375.4L60.5,375.4l1.6-0.7l-0.3-1.2l0,0l0.3,1.2L60.5,375.4z M395,256.4L395,256.4l0,0.4l-1,0.9l0,0l1-0.9
	L395,256.4z M394.9,258l0.1,0.6l0,0L394.9,258L394.9,258z M395.7,259.2L395.7,259.2l-0.7,0.6l0.1,0.4l0,0l-0.1-0.4L395.7,259.2z
	 M393.1,244.3l-1-0.5l0,0L393.1,244.3l1.1-0.4L393.1,244.3z M381.8,282.3l0.6-0.4l0.5,0.8l1.5,0l0.5,1.1l1.5,0.2l0.1,0.5l0.9,0.4
	l-0.3-0.7l0.6-0.9l0,0l-0.6,0.9l0.3,0.7l-0.9-0.4l-0.2,2.7l0,0l0.2-2.7l-0.1-0.5l-1.5-0.2l-0.5-1.1l-1.5,0l-0.5-0.8L381.8,282.3
	l-0.1,0.4L381.8,282.3z M386.4,282.3L386.4,282.3l0.1-0.8l0,0L386.4,282.3z M387,294.2l0.4,0.6l0,0L387,294.2l0.4-0.5l0,0L387,294.2
	z M388.3,296.2L388.3,296.2l0.3-1l0,0L388.3,296.2z M388.6,297.5L388.6,297.5l-0.5,0l0,0L388.6,297.5z M378.2,310.1l1.9,0.6
	l-0.1-0.1l0.1,0.1L378.2,310.1l-0.5,0.3l-0.2-0.2l0,0l0.2,0.2L378.2,310.1z M377.7,309.7L377.7,309.7l-1.8-0.2l0.5,1.6l0,0l-0.5-1.6
	L377.7,309.7z M376,313.9l0.1-1.7l0.4,0.7l0.5-0.5l-0.1-1.2l0,0l0.1,1.2l-0.5,0.5l-0.4-0.7L376,313.9l-0.5-0.1l-0.6-0.2l0,0l0.6,0.2
	L376,313.9z M375.1,313.3L375.1,313.3l-1.2-0.3l0,0L375.1,313.3z M367.3,316.8l0.5-1.5l-0.5-1.5l0.5,0.4l1-0.7l0.1-0.4l0.4-0.4
	l0.8,0.7l0.6-0.4l3,1.5l0.5,0l0.3-0.5l0,0l-0.3,0.5l-0.5,0l-3-1.5l-0.6,0.4l-0.8-0.7l-0.4,0.4l-0.1,0.4l-1,0.7l-0.5-0.4l0.5,1.5
	L367.3,316.8l-1,0.2l-0.1-0.2l0.1,0.2L367.3,316.8z M360.4,334l0.6-0.7l0,0L360.4,334l-0.3,1.7l0,0L360.4,334z M362.1,332.3
	l-0.6,0.2l-0.3-0.3l-0.7,0.5l0,0l0.7-0.5l0.3,0.3L362.1,332.3l0.4-0.9l0,0L362.1,332.3z M352.8,340.2l-0.3,0.9l0,0L352.8,340.2
	L352.8,340.2z M352.8,328.2L352.8,328.2l0,0.1L352.8,328.2z M367.3,342l0.2-0.5l0,0L367.3,342l-0.8-0.2l0.3,0.9h0l-0.3-0.9
	L367.3,342z M368.3,343.6l-0.3,1.5l0,0L368.3,343.6L368.3,343.6z M369.1,346.6l0-0.9l0,0L369.1,346.6l-1.3,0.1l0,0L369.1,346.6z
	 M359,319.8l0.4-0.9l1.1-0.5l0-0.4l1.7,0l1.2-0.9l2-0.5l0.7,0l0,0l-0.7,0l-2,0.5l-1.2,0.9l-1.7,0l0,0.4l-1.1,0.5L359,319.8l-0.1,1
	l0,0L359,319.8z M359.2,321.1L359.2,321.1l-1.4,0.8l0,0L359.2,321.1z M357.5,322l0.4,0.4l0.3-0.2l0,0l-0.3,0.2L357.5,322l-0.7,0.5
	l-0.4-0.3l0,0l0.4,0.3L357.5,322z M356.3,321.6l0.4-0.3l0,0L356.3,321.6l-1.5-0.3v0L356.3,321.6z M352.5,319l1.3,0.3v0L352.5,319
	l-0.4,0.7l-0.1,0L352.5,319z M349.5,321.4l1.5,0.3l2-0.8l0,0l-2,0.8L349.5,321.4l-0.1,1.3l0,0L349.5,321.4z M349.8,324.4l-0.2-0.9
	l0.6-0.1l0,0l-0.6,0.1L349.8,324.4l-1,1.5l0.1,1.6h0l-0.1-1.6L349.8,324.4z M348.9,350.2l-0.8,0l-0.5,1.8h0l0.5-1.8L348.9,350.2
	l-0.6-0.7h0L348.9,350.2z M332.5,350l0.8-0.6l0,0L332.5,350L332.5,350z M334.7,344.8l0,0.1L334.7,344.8L334.7,344.8z M335.1,345.8
	l-0.8,0.4l0,0L335.1,345.8L335.1,345.8z M325.6,411.4l0.7-0.1v0L325.6,411.4L325.6,411.4z M322.9,343.4l0,0.5h0L322.9,343.4
	L322.9,343.4z M318.4,344.1L318.4,344.1l-1,0l0,0L318.4,344.1z M311,345l2.7-0.7l0.7-2.1l-1.3-0.8l0.1-0.4l0.4,0l2.5,1l0,0l-2.5-1
	l-0.4,0l-0.1,0.4l1.3,0.8l-0.7,2L311,345l-2.1,2.4h0L311,345z M305.5,354.4l0.6-0.8l-0.9-0.4l-0.3-0.6l0.1-1.9l1.2-0.2l-0.8-0.8
	l1.7-2.5l0.9-0.4l1.1,0.1l-1.1-0.1l-0.9,0.4l-1.7,2.5l0.8,0.8l-1.2,0.2l-0.1,1.9l0.3,0.6l0.9,0.4L305.5,354.4l0.3,0.6l-1,0.2
	l0.1,0.8l0,0l-0.1-0.8l1-0.2L305.5,354.4z M303.5,356.3l0.5-0.7l0,0L303.5,356.3l0.3,0.8l-1.2,1.4l1.2,1l-0.6,0.4l0,0l0.6-0.4
	l-1.2-1l1.2-1.4L303.5,356.3z M304,411.9L304,411.9l-0.4-0.5l0,0L304,411.9z M301.8,359.8l1.2-0.8l0,0L301.8,359.8l-0.9,2.4l0.3,1.1
	l0.8,0.9l0.2,1l-0.5,0.2l0,0l0.5-0.2l-0.2-1l-0.8-0.9l-0.3-1.1L301.8,359.8z M300.8,414.6l0.3-0.8l0,0L300.8,414.6L300.8,414.6z
	 M298.7,367l1.1-0.5l-0.4-0.5l0.3-1.3l0,0l-0.3,1.3l0.4,0.5L298.7,367l-0.5,2.6l-1.3,0.7l0,0l1.3-0.7L298.7,367z M295.6,424.5
	l-0.4,0.2l0,0L295.6,424.5L295.6,424.5z M295.5,421.3l-0.9,0l0,0L295.5,421.3L295.5,421.3z M292.2,369.3l1.5-0.5l0,0L292.2,369.3
	l-1.3-0.2l-0.5,0.4l0,0l0.5-0.4L292.2,369.3z M277.8,417.8l-0.9,0l-0.1,0.9l-0.9-0.1l-1.3,0.6l-0.4,1.2l0,0l0.4-1.2l1.3-0.6l0.9,0.1
	l0.1-0.9L277.8,417.8l0.6-0.7l0.2-2.1l1.3-0.3l-0.3-2.1l-0.6-0.9l0.3-0.2l-0.2-0.1h0l0.2,0.1L279,412l0.6,0.8l0.3,2l-1.3,0.3
	l-0.2,2.1L277.8,417.8z M278.8,406.5l-0.6,1.1l0.5,2.2l-0.4,0.7l0.5,0.1l-0.5-0.1l0.4-0.7l-0.5-2.2L278.8,406.5l-0.8-0.9l0.5-0.1
	l0.3-1l-1.2,0.3l-0.5-1.3h0l0.5,1.3l1.2-0.1l-0.3,0.9l-0.5,0L278.8,406.5z M276,398.4l0.4-1.9h0L276,398.4l0.2,3.8l-0.5,1.2h0
	l0.5-1.2L276,398.4z M282.8,395.1l-0.9,1.1l0,0L282.8,395.1l1-0.4l0,0L282.8,395.1z M283.1,387.3l0.5-0.4l-0.7-1.1l0.7-1.8l-0.4-1
	l0,0l0.4,1l-0.7,1.8l0.7,1.1L283.1,387.3l0.2,1.2l-0.7,1.2l0.2,2.5l4,2.2h0l-4-2.2l-0.2-2.1l0.7-1.4L283.1,387.3z M287.7,395.8
	l1.1,0.1l0.3-0.7l-0.3-0.6l0.1-2.1h0l-0.1,2.2l0.3,0.6l-0.3,0.9L287.7,395.8l-1.2,0.7h0L287.7,395.8z M284.1,375.9l0.5-1.6l1.3-0.8
	l1.3-1.9l-0.2-0.7l0.7-0.6l-0.2-1l2.2-0.2l0,0l-2.2,0.2l0.2,1l-0.7,0.6l0.2,0.7l-1.3,1.9l-1.3,0.8L284.1,375.9l-0.8-0.1l0,0
	L284.1,375.9z M281.7,377.2l0.2-2.6l0,0L281.7,377.2l0.6,2.7l-0.8,1.4l1.1,0.9l0.1,1.2l0,0l-0.1-1.2l-1.1-0.9l0.8-1.4L281.7,377.2z
	 M279.7,392.7L279.7,392.7l-1,0.4l0,0L279.7,392.7z M276.4,391.7l-0.6,0.8l0,0L276.4,391.7L276.4,391.7z M272.7,392l1.4-1.3l0,0
	L272.7,392l-0.6,1.7l0.2,0.9l2.1,0.9l0.4,1h0l-0.4-1l-2.1-1l-0.2-0.8L272.7,392z M265.2,432.5l0.7-1.3l0.3-1.3l-0.3-0.5l0.4-1.5
	l1.3-0.8l1.3-0.2l0-0.6l1.7-0.1l0.3-1.3l1.8-2l0.7-0.3l0.2-0.7l0.7,0.1l0.1-0.6l-1.3-0.7l-0.1-0.6l0,0l0.1,0.6l1.3,0.7l-0.1,0.6
	l-0.7-0.1l-0.2,0.7l-0.7,0.3l-1.8,2l-0.3,1.3l-1.7,0.1l0,0.6l-1.3,0.2l-1.3,0.8l-0.4,1.5l0.3,0.5l-0.3,1.3L265.2,432.5l0.1,1.1
	l-0.8,1.8h0l0.8-1.8L265.2,432.5z M254,404l-2,0.5l1.1,1.2l-1.8,1.4l-1.2,0l0,0l1.2-0.1l1.8-1.5l-1.1-1.3L254,404l-0.3-0.6h0
	L254,404z M244.2,387.8l2.5-0.6l0.6-0.8l1.5-0.5l-0.6-0.7l0.7-3.7h0l-0.7,3.7l0.6,1l-1.5,0.4l-0.6,0.7L244.2,387.8l0.6,1.1l-0.5,0.9
	l0.1,0.7h0l-0.2-0.7l0.5-0.7L244.2,387.8z M246.6,379.4l-0.5,1.1l0.6,1h0l-0.6-1l0.5-0.9l1.4-0.7l-0.7-1.8l-0.1-3.6h0l0.1,3.5
	l0.7,1.7L246.6,379.4z M246.9,394.1l-0.8,0.1l0,0L246.9,394.1l0.5-1.1l0-1.6l-0.1-0.9l-0.1-0.1l0.1,0.1l0.1,0.9l0,1.6L246.9,394.1z
	 M245.4,393.7l-0.7,0.4l0,0.5l0,0l0-0.5L245.4,393.7L245.4,393.7L245.4,393.7z M244.5,397.2l0.7-0.3l1.3-1l-0.3-0.4h0l0.3,0.2
	l-1.3,1L244.5,397.2l-0.1,1.2h0L244.5,397.2z M247.3,396.4L247.3,396.4l-0.1,0.9l0,0L247.3,396.4z M249.7,399.2l-0.2,1.9h0l0.2-1.8
	L249.7,399.2z M249.8,406.3L249.8,406.3l-1.2,0.4l0,0L249.8,406.3z M253.1,402.2L253.1,402.2l-0.3-0.7h0L253.1,402.2z M249.8,366.7
	l-0.7,0.8l-3.4,1.5l-0.5,1.5l0.3,1.2L245,372l0.6,1.5h0L245,372l0.5-0.5l-0.3-1.2l0.5-1.5l3.4-1.6L249.8,366.7l-0.3-0.2h0
	L249.8,366.7z M244,362.1l0.8,1.5l-0.4,1l0.3,1h0l-0.3-1.1l0.4-0.8l-0.8-1.4l-2.1-1.7h0L244,362.1z M231.6,527.8l0.4,0.5l0.8-0.6
	l0,0l-0.8,0.6L231.6,527.8l-0.7,0.3l0,0L231.6,527.8z M231,527.5l-0.4,0.1l0,0L231,527.5L231,527.5z M231.2,553.1l0.4,0.7l0,0
	L231.2,553.1l-0.5-0.2l0,0L231.2,553.1z M231.4,552.3l0.7-0.2l0,0L231.4,552.3l0.4,1.2l0,0L231.4,552.3z M230,401.3l-0.8,1.4
	l-0.9-0.3l0,0l0.9,0.3L230,401.3l1.7-0.6l0.7,0.2v0l-0.7-0.2L230,401.3z M225.8,526.6L225.8,526.6l-0.3,1.4l0,0L225.8,526.6z
	 M225.6,525.8l-0.9,0.4l0.1,0L225.6,525.8l1.8,0.2v0L225.6,525.8z M222,403.5l-0.9,0.1l0,0L222,403.5l-0.3-0.5l0.6-0.7l0.1-1.7
	l1.2,0.5l0,0l-1.2-0.5l-0.1,1.7l-0.6,0.7L222,403.5z M208.6,530.2L208.6,530.2l-0.4-0.4l0,0L208.6,530.2z M208.2,531.1L208.2,531.1
	l-0.1-0.6l0,0L208.2,531.1z M207.3,532.6L207.3,532.6l-0.1-1.2l0-0.1L207.3,532.6z M206.8,533.8L206.8,533.8l-0.3-1.2h0L206.8,533.8
	z M197.4,516l0-1.2l0,0L197.4,516l0.4,0l0.1-0.8l0.7,0.2v0l-0.7-0.2l-0.2,0.8L197.4,516z M196.8,514.5l-0.5-0.7l-1.3-0.1l-0.2,0.5
	l0,0l0.2-0.5l1.3,0.1L196.8,514.5l1.1-1.1l0.2,1.1h0l-0.2-1.1L196.8,514.5z M195.2,515.3l-1,0.5l0,0L195.2,515.3L195.2,515.3z
	 M194.3,516.2l-1.2,0.4v0L194.3,516.2L194.3,516.2z M187.1,516.5L187.1,516.5l0.9,0l-0.7,2.4l0.1-0.1v0l-0.1,0.1l0.4-2.4
	L187.1,516.5z M176.4,559.4l-0.3,0.5l0,0L176.4,559.4l-0.4-0.8l1.4-2.7l0,0l-1.4,2.7L176.4,559.4z M168.2,560.5L168.2,560.5
	l-0.8-2.1v0l0.9,0.1l1.2-0.8l0.1,0l-1,0.8l-0.5,0.6L168.2,560.5z M163.6,447.1l-0.3-0.8l-0.8-0.4h0l0.9,0.4L163.6,447.1L163.6,447.1
	z M148.5,453.6L148.5,453.6l0.7,0.3l0,0L148.5,453.6z M129.2,472.3L129.2,472.3l0.9-0.4l0,0L129.2,472.3z M112.1,381.7l-0.4-0.1
	l0-0.8l-0.8-0.2l-0.7-1l0,0l0.7,1l0.8,0.2l0,0.8L112.1,381.7L112.1,381.7z M110.7,388.5l-0.1-3l-0.6-0.8l0,0l0.6,0.8L110.7,388.5
	L110.7,388.5z M104.5,301.4l-0.4,0.6L104.5,301.4L104.5,301.4z M105.9,304L105.9,304l-0.7-0.1l0,0L105.9,304z M106.5,303.3
	L106.5,303.3l-0.3-0.2l0,0L106.5,303.3z M105.7,303L105.7,303l0.8-0.5L105.7,303z M104.1,302l0.2,0.1L104.1,302L104.1,302z
	 M104.7,307.4l2.1,0.8L104.7,307.4l-0.6-1L104.7,307.4z M105.3,389.2L105.3,389.2l-0.1-0.7l0,0L105.3,389.2z M105.5,386.8l-1.2,1.2
	l-0.9,0v0l0.9,0l1.1-1.2l0.5,0.1l0,0l0,0L105.5,386.8z M106.2,389.8l0.6-0.8l0,0L106.2,389.8L106.2,389.8z M101,387L101,387l0.9,1.2
	h0L101,387z M109.4,313.2l1-1.2L109.4,313.2L109.4,313.2z M131.3,355.8L131.3,355.8l0.2-0.9L131.3,355.8z M120.7,377.5l-0.2-1.9
	l-1.1-2v0l1.1,2L120.7,377.5L120.7,377.5z M113.8,368.9l0.6,1.2l1-0.1v0l-1,0.1l-1-1.2L113.8,368.9z M117.6,359.5l0.7,0.5l0.7,2.1
	l4-1.3l2.2,0l0.4,0.6l0.6-0.4l0.6,0.3l0.4-0.6l0.2,0.5v0l-0.2-0.5l-0.5,0.6l-0.5-0.3l-0.5,0.4l-0.4-0.6l-2.2,0l-4,1.3l-0.7-2.1
	L117.6,359.5L117.6,359.5z M118,355.4l0.7,0.7l0,0L118,355.4L118,355.4z M118.4,356.7l1.2,1.3l0,0L118.4,356.7L118.4,356.7z
	 M124.6,349.6l-0.5,0.2l-0.1-2.4l-0.9-0.2l0,0l0.9,0.2l0.1,2.4L124.6,349.6l0.5,0.4l0,0L124.6,349.6z M127,462.2L127,462.2l0.7,0.8
	l0,0L127,462.2z M126.8,463.5l0.6-0.5l0,0L126.8,463.5L126.8,463.5z M127.4,463.9l0.8,0.1v0L127.4,463.9L127.4,463.9z M128.3,465.2
	L128.3,465.2l0.4,0.5l0,0L128.3,465.2z M128.6,462.3l0.1-0.4l0,0L128.6,462.3l0.5,0.2l0,0L128.6,462.3z M128.5,352.2L128.5,352.2
	l0.6-0.8h0L128.5,352.2z M125.6,342.8l0.9,0l0.8,0.7h0h-0.8h-0.9l-0.3-1.2l0,0.1l0-0.3L125.6,342.8z M123.4,346.8L123.4,346.8
	l-0.6-0.9l0.1-0.8l-0.1,0.8L123.4,346.8z M127.2,353.1l0.2-0.7l0.1,0l-0.1,0L127.2,353.1l-1.7,0.2l0,0L127.2,353.1z M115.4,371.2
	l1.3,0.9l1-0.2l0.3,0.5l1.8,0.3l0,0l-1.7-0.3l-0.2-0.5l-1.3,0.2L115.4,371.2L115.4,371.2z M126,477.2l0.4,0.9h0L126,477.2L126,477.2
	z M126.1,479.6l-0.4,0.3l0,0L126.1,479.6L126.1,479.6z M128.1,467.7L128.1,467.7l0.4-0.5l1.3,0.2l0,0l-1.3-0.2L128.1,467.7z
	 M130.8,459.9L130.8,459.9l0.4,0.7h0L130.8,459.9z M129,338.5L129,338.5l0.2-1L129,338.5z M121.4,341.3l0.6,0.4l1-0.4l0,0.9l0.5,0
	l0.4,1l0.4-0.7l0.4,0.5l0.6-0.2v0l-0.6,0.2l-0.4-0.5l-0.4,0.7l-0.4-1l-0.5,0l0.1-0.9l-1.3,0.4L121.4,341.3L121.4,341.3z
	 M123.5,351.5L123.5,351.5l1.1,0.6l-0.2,0.7l0,0l0.1-0.7L123.5,351.5z M118.7,379.1L118.7,379.1l-0.4-0.5h0L118.7,379.1z
	 M128.3,475.9L128.3,475.9l0.4,0.1L128.3,475.9z M135.4,182.4l0.1,0l0,0L135.4,182.4z M138.6,182.4l0.1,0.6h0L138.6,182.4z
	 M144.6,187.6L144.6,187.6l0,0.8l-0.7,0.6l0.3,0.7l0.9,0.5l-0.9-0.5l-0.3-0.7l0.7-0.6L144.6,187.6z M146.7,190.6L146.7,190.6
	l-0.2-0.2L146.7,190.6z M199.7,122.9l-0.5-0.2L199.7,122.9L199.7,122.9z M204.2,123.9L204.2,123.9l0,1.1l-0.4,0.5l0.6,0.7l-0.6-0.7
	l0.4-0.5L204.2,123.9z M206.1,525.6l-0.8-0.4l0.7-4.4l-3.1-0.2l-0.9,0.6l0.2-1.2l-0.6-0.1l-0.1-0.5l-1.4,0.3l-0.4-0.6l0.1-0.4l0,0
	l-0.1,0.4l0.4,0.6l1.4-0.3l0.1,0.5l0.6,0.1l-0.2,1.2l0.9-0.6l3.1,0.2l-0.7,4.4L206.1,525.6L206.1,525.6z M200.1,517.7L200.1,517.7
	l0.5,0.5l-0.1,0.5h0l0.1-0.5L200.1,517.7z M193.4,421.9l-1.5,0.6l0,0L193.4,421.9l-0.1-2.4l0.5-0.6l0,0l-0.5,0.6L193.4,421.9z
	 M187.5,514.3L187.5,514.3l-0.4-0.5l0,0L187.5,514.3z M187.4,515.7l-1.2-0.2l-0.8,0.4l-0.3-0.6l-1.1,0.3l-0.3-1.1l-0.4,0.7l-0.1-0.4
	l-0.5,0.4l0-1.1l-0.3,0.3v0l0.3-0.3l0,1.1l0.5-0.4l0.1,0.4l0.4-0.7l0.3,1.1l1.1-0.3l0.3,0.6l0.8-0.4L187.4,515.7L187.4,515.7z
	 M181.4,557.3L181.4,557.3l-0.1-1l2.4-0.4l0.3-0.4l0.8,0.1l0,0l-0.8-0.1l-0.3,0.4l-2.4,0.4L181.4,557.3z M174,438.3l-0.6,0.2
	l-0.1,0.9l-0.5-0.2l0,0l0.5,0.2l0.1-0.9L174,438.3l-0.2-0.9l0.9-0.1l0.5-0.8l0,0l-0.5,0.8l-0.9,0.1L174,438.3z M169.4,437.9v0.9
	l-1,0v1.1l-0.6,0.3l0,0.8l-1.6,0.2l0.2,1v0l-0.1-1l1.7-0.2l0.3-0.8l1.2-0.3l-0.4-1.1l0.4,0V437.9l1,0v0L169.4,437.9z M157.4,445.4
	L157.4,445.4l-0.7-0.7l0,0L157.4,445.4z M166.3,178.3l0.4,0.5l-0.3,0.3l0.3-0.3L166.3,178.3z M166.1,150.4L166.1,150.4l0.4,1.1
	l-0.5,0.2l0.5-0.2L166.1,150.4z M169,152.5l0.4,0.8h0L169,152.5l-0.7,0.6l0.3-0.5l-1.3-1.9l-0.1-0.5l0.1,0.5l1.3,1.9l-0.3,0.5
	L169,152.5z M190.8,539.5l-0.5,1.2l0.2,1l0.5,0.1l-0.6,0.6l0,0l0.6-0.6l-0.5-0.1l-0.2-1L190.8,539.5l-0.2-0.7l1.2-0.3l0,0l-1.2,0.3
	L190.8,539.5z M191.5,517.7l-0.3,0.2l-0.5-0.3l-1.2,0.5l-1.1-0.5v0l1.1,0.5l1-0.5l0.6,0.3L191.5,517.7L191.5,517.7z M186.9,510.5
	l-0.1-0.3l-0.9,0.4l0.1-0.6l0,0l-0.1,0.6l0.9-0.4L186.9,510.5L186.9,510.5z M184.6,507.1l0-1.1l-0.9,0.4l-1.5-0.5l-0.8,1v0l0.8-1
	l1.5,0.5l0.9-0.4L184.6,507.1l1.5,0.1l-0.1,0.8l0.6,0.8l0.7-0.4v0l-0.7,0.4l-0.6-0.8l0.1-0.8L184.6,507.1z M182.4,517.3l-1.3-0.1
	l-0.7,0.4l-1.3-0.6l-0.7,0.1V517l1.3,0.6l1-0.4L182.4,517.3L182.4,517.3z M177.8,507.2l0.2,0.6l2.1,0l0.5,0.6l0.6-0.1v0l-0.6,0.1
	l-0.5-0.6l-2.2,0L177.8,507.2L177.8,507.2z M176,493.8l-1.2-0.4l0,0L176,493.8l0.7,0.1l-0.3,3.6h0l0.3-3.6L176,493.8z M174.9,491.4
	L174.9,491.4l0.2,1.1l0,0L174.9,491.4z M174.3,435.1l-0.1,0.8l0,0L174.3,435.1l1.2,0.6l2.2-0.9l0-2.4l0.7-0.1l-0.1-0.7l0.4-0.5l0,0
	l-0.4,0.5l0.1,0.7l-0.7,0.1l0,2.4l-2.2,0.9L174.3,435.1z M166.7,443.2L166.7,443.2l0.4-0.6l0,0L166.7,443.2z M167.3,443.2
	L167.3,443.2l-0.8,0.5l0.1,0.7l0,0l-0.1-0.7L167.3,443.2z M167.4,446.9l-0.5,0L167.4,446.9l0.5-1.2l0,0L167.4,446.9z M167,445.6
	l0.2-1.2l0,0L167,445.6L167,445.6z M166.8,446.9L166.8,446.9l-0.2-0.8l0,0L166.8,446.9z M164.2,181L164.2,181l-0.2,0.1L164.2,181z
	 M169.7,179.9l0.7-0.3L169.7,179.9l-0.2-0.5L169.7,179.9z M170.3,176.6l0-0.1L170.3,176.6L170.3,176.6z M175.3,362.3l-0.6-0.7l0,0
	L175.3,362.3L175.3,362.3z M171.9,179.5l-0.3,0.4l-0.5,0.1l0,0l0.5-0.1L171.9,179.5z M170.7,179.4l0.2,0.3L170.7,179.4L170.7,179.4z
	 M173.5,172.9l0.1,0.3L173.5,172.9L173.5,172.9z M174,173.6l-0.3-0.1l0,0L174,173.6z M175.6,172.5l0.4-0.5h0L175.6,172.5z
	 M175.6,172.5l-1-0.6L175.6,172.5L175.6,172.5z M173.8,174.2l0.1-0.2L173.8,174.2l-0.1,0L173.8,174.2z M167.9,177.1l-0.3,0.2
	L167.9,177.1l0.8,2.2L167.9,177.1z M167.6,177.8l0.2,0.3l-0.2,0.7l0.2-0.7L167.6,177.8z M172.8,366.5L172.8,366.5l-0.7-1.1l0,0
	L172.8,366.5z M186.4,425L186.4,425l0.8,0.2l0,0L186.4,425z M186.6,448.7L186.6,448.7l0.4,0.2l0,0L186.6,448.7z M187.6,447.6
	l0.3-1.4h0L187.6,447.6l0.4,0.1l0,0.1L187.6,447.6z M190.7,435.7L190.7,435.7l-0.2-0.8l0,0L190.7,435.7z M191.7,433.2l-1-0.3
	l-0.9-0.9l0,0l0.9,0.9L191.7,433.2l0.1,1.1l-0.2,1.1h0l0.2-1.1L191.7,433.2z M191.3,433.9l-0.1,1.1h0L191.3,433.9L191.3,433.9z
	 M190.3,435.6l-0.4,1.1h0L190.3,435.6L190.3,435.6z M190.7,422.1l0.1,1.5l-0.5-0.2l-0.6,0.4l0,0l0.6-0.4l0.5,0.2L190.7,422.1l1-0.1
	l0,0L190.7,422.1z M189.2,426.1l0.7-1.4l0,0L189.2,426.1L189.2,426.1z M189.4,424.5L189.4,424.5l1.1-0.4l0,0L189.4,424.5z
	 M189.1,426.9l0.8,0.3l0.3-0.5l-0.9-0.6l0.9,0.6l-0.3,0.5l1,0.3l-0.7,1.6l0.6,1l0.1,1.1l0,0l-0.1-1.1l-0.6-1l0.7-1.6l-1-0.3
	L189.1,426.9l0,0.6l-0.9,0.4l0,0l0.9-0.4L189.1,426.9z M187.9,439.3l2.1-1.1l0.1-0.3l-1.2-0.4l0.1-0.4l0.3-0.5h0l-0.3,0.5l-0.1,0.4
	l1.2,0.4l-0.1,0.3L187.9,439.3l-0.2,2.2l1,0.3l0.2,0.5l0,0l-0.2-0.5l-1-0.3L187.9,439.3z M188.7,472.4l0-0.2L188.7,472.4l0.4,1.1
	l0,2.1h0l0-2.1L188.7,472.4z M188.6,470.7l0.4,0.2l0,0L188.6,470.7l-0.1-0.8l0,0L188.6,470.7z M188.7,468.5l0-0.5L188.7,468.5l0.4,0
	l0,0L188.7,468.5z M190.4,466.3l-1.7-0.8l-1.5,0.3l-1.3-0.3l-1.1-0.6l-0.9-1.4h0l0.9,1.4l1.1,0.5l1.3,0.4l1.5-0.2L190.4,466.3
	L190.4,466.3z M186.8,461.8L186.8,461.8l0.5,0.9h0L186.8,461.8z M187.6,460.5l-0.3-0.4h0L187.6,460.5l0.7-0.3l-0.1,1.2v0l0.1-1.2
	L187.6,460.5z M187.4,458.9l0.3-1.3h0L187.4,458.9l0.8-0.3l0,0.3h0l0-0.3L187.4,458.9z M189.1,444.5L189.1,444.5l0.5,0.5l-0.1,0.6
	l0,0l0.1-0.6L189.1,444.5z M186.2,449.9l2,1.1l0.7,1.9l-0.9,3l0.3,3.6h0l-0.3-3.6l0.9-2.5l-0.7-2.2l-2-1.3L186.2,449.9z
	 M186.4,463.1l-0.1,0.3h0L186.4,463.1z M179.7,476.3l0.8,0.2l-0.4,1.8l1.6,1.5l-0.2,0.7l0,0l0.2-0.7l-1.6-1.5l0.4-1.8L179.7,476.3
	L179.7,476.3z M179.8,481.3L179.8,481.3l0,1.4h0L179.8,481.3z M179.8,484.2l0.7,2.2l0.9-0.1l0.1,0.7l0.6,0.1l0.3,0.5l0,0l-0.3-0.5
	l-0.6-0.1l-0.1-0.7l-0.9,0.1L179.8,484.2l-1.1-0.8l0,0h0l0,0L179.8,484.2z M182.3,488.8l0,0.8h0L182.3,488.8l-0.7-0.5l0,0
	L182.3,488.8z M182.2,490.4L182.2,490.4l-0.4-0.4l0,0L182.2,490.4z M178.2,508.8L178.2,508.8l-0.1,0.5h0L178.2,508.8z M182.4,515.3
	l-0.7,0.1l0,0L182.4,515.3L182.4,515.3z M188.8,507.6l-0.8-0.2l-0.2-0.2l-1.1,0.3h0l1.1-0.4l0.2,0.4l0.8,0.3l0.1,2.7h0L188.8,507.6z
	 M189.1,518.7L189.1,518.7l-0.5-0.4l0,0L189.1,518.7z M190.3,444.5L190.3,444.5l0-0.5l0,0L190.3,444.5z M191.8,443l-0.2,0.5l0,0
	L191.8,443L191.8,443z M190.6,442.4l0-0.6l-0.9,0.3l-0.5-0.5v0l0.5,0.5l0.8-0.3L190.6,442.4l1.8,0.5l0,0.6h0l0-0.6L190.6,442.4z
	 M191,443.7l0,0.5l0,0L191,443.7L191,443.7z M188.6,364.6l-0.3-1.3L188.6,364.6L188.6,364.6z M187.7,426.9L187.7,426.9l-1.5-0.1l0,0
	L187.7,426.9z M185.4,423.9l0,0.5l0-0.3v0l0,0.3l-0.2-0.5l-1.4,0.9l0.2,0.8l-0.9,1.2l0.2,0.7l-0.7-0.1l-0.4,1.3l-1,0.4l0.3,0.9l-1,0
	l-0.5-0.6l-0.2,0.4l-0.7-0.5l-0.6,0.1l-0.6,1.4l0,0l0.6-1.4l0.6-0.1l0.7,0.5l0.2-0.4l0.5,0.6l1,0l-0.3-0.9l1-0.4l0.4-1.3l0.7,0.1
	l-0.2-0.7l1-1.2l-0.1-0.8L185.4,423.9z M171.7,156.8l0.4,0.2l-0.5,1.3l0.5-1.3L171.7,156.8z M170.3,153.7L170.3,153.7l0.6-0.4
	L170.3,153.7z M170,153.5L170,153.5L170,153.5l0.4-0.5L170,153.5z M167,150.1l0.1-0.6h0L167,150.1z M166.3,179.2l-1.4-0.2
	L166.3,179.2L166.3,179.2z M164,178.1L164,178.1L164,178.1L164,178.1z M164.1,178.6L164.1,178.6l-0.2,0L164.1,178.6z M163.7,178.6
	l0.5,0.3L163.7,178.6L163.7,178.6z M164.7,184.5L164.7,184.5l-2.4,1.6l-0.7-0.2l0.7,0.2L164.7,184.5z M162.8,367.4l0.3-0.4l0,0
	L162.8,367.4L162.8,367.4z M152.4,135.5l1-0.3l0,0L152.4,135.5L152.4,135.5L152.4,135.5z M159.4,187.5l-1.6-0.3l-0.5-0.7l0.5,0.7
	L159.4,187.5L159.4,187.5z M152.9,186.6l1.4,0.4l0.2-1.2l0.6-0.2l-0.6,0.2l-0.2,1.2L152.9,186.6l-0.2,0.6L152.9,186.6z M162.3,368.9
	l1-0.1l0.1-0.4l-0.5-1l0.5,1l-0.1,0.4L162.3,368.9l1.1,1.6h0L162.3,368.9z M167.9,556.5L167.9,556.5l-1.4,0.4l0,0L167.9,556.5z
	 M171,439l0.8-1.3l0,0L171,439L171,439z M175.4,502.1l-0.8-1.5l0.7-2.5l-0.3-0.7h0l0.3,0.7l-0.7,2.5L175.4,502.1l0.5,0.1l0.8,1.1
	l2-0.2l0,0l-2,0.2l-0.8-1.1L175.4,502.1z M178.2,503.7l0,0.9l0,0L178.2,503.7L178.2,503.7z M177,504.8L177,504.8l-0.1,0.9l1.4,1l0,0
	l-1.4-1L177,504.8z M177.2,509.4L177.2,509.4l-0.1,0.5l0.8,0.1l0.9,1.2l0,0l-0.9-1.2l-0.8-0.1L177.2,509.4z M178,513.5l2,1.7
	l0.1,0.3h0l-0.1-0.3L178,513.5L178,513.5z M178.7,516.2l0.5,1.4l0.4,0.2l0,0l-0.4-0.2L178.7,516.2L178.7,516.2z M179.7,556.3
	l0.6-0.2l0,0L179.7,556.3L179.7,556.3z M187.5,513.1l-1.1,0l0.1-0.8l-1.1-0.3l0,0l1.1,0.3l-0.1,0.8L187.5,513.1L187.5,513.1z
	 M186.5,510L186.5,510l0.2-0.7h0L186.5,510z M189.7,546.1l1.2-1.4l0.3-1.1l0.1-1.3l0,0l-0.1,1.3l-0.3,1.1L189.7,546.1l-1.4,0.8
	l-0.1,1.5h0l0.1-1.5L189.7,546.1z M191.7,516.9l-0.7,0.4l0,0L191.7,516.9l0.4,0l-0.1,0.5l0.3-0.2l-0.1,0.6v0l0.1-0.6l-0.4,0.2
	l0.2-0.5L191.7,516.9z M204.5,400.7l0,0.7l-0.6,0.3l0.6,2.1l-2.4,0.9l0.3,1.8l-0.5,2.1h0l0.5-2.1l-0.3-1.7l2.4-0.9l-0.6-2.1l0.6-0.3
	L204.5,400.7l-0.8-1.2l0.3-0.5l1.1-0.5l0.4-1.4L205,396l-0.9-0.2l0.5-1.3l0,0l-0.5,1.3l0.9,0.2l0.6,1.2l-0.4,1.4L204,399l-0.3,0.5
	L204.5,400.7z M204.9,395.1L204.9,395.1l0.3,0L204.9,395.1z M195.4,414.7L195.4,414.7l0.2-0.8l0,0L195.4,414.7z M194.9,414
	L194.9,414l0.1-0.7h0L194.9,414z M195.4,416.8l2-0.5l-1.2-1.9h0l1.2,1.9L195.4,416.8l-1,2.4l0,0L195.4,416.8z M195.8,407.2l0.8,0.3
	l-0.7,0.2l-0.4,1.2l0.2,0.3l-0.5,0.9l0.3,0.9l-0.9-0.2l-0.1,1l-0.7-0.2l-0.1,0.8l0.2,1h0l-0.2-1l0.1-0.7l0.7,0.2l0.1-1l0.9,0.2
	l-0.3-0.9l0.5-0.9l-0.2-0.3l0.4-1.2l0.7-0.2L195.8,407.2l0-0.4l1.7-0.8l0,0l-1.7,0.8L195.8,407.2z M200.1,407.8L200.1,407.8
	l-0.6,0.3l0,0L200.1,407.8z M192.8,365l-0.3-0.8l0,0L192.8,365L192.8,365z M190.2,361.5l-2.1-0.6l-0.8,0.5l0,0l0.8-0.5L190.2,361.5
	l0.8-0.3l0,0L190.2,361.5z M190.2,360.8L190.2,360.8l0-1.3l0,0L190.2,360.8z M184.7,357.5L184.7,357.5l0.1-0.7L184.7,357.5z
	 M177,173.6L177,173.6l0.5-0.6l-1.1-1.2v-0.5v0.5l1.1,1.2L177,173.6z M177.4,170.6l0.4-0.5h0L177.4,170.6z M177.1,169.6L177.1,169.6
	l0.5,0.4L177.1,169.6z M176.6,167l0-0.4h0L176.6,167z M171.2,154.6L171.2,154.6l0.5-0.1L171.2,154.6z M171.6,153.8l-0.2-0.2
	L171.6,153.8L171.6,153.8z M165.8,151.8L165.8,151.8l0,0.5l-2.4,0.3l0,0l2.4-0.3L165.8,151.8z M163.3,151.8l-0.6-0.5L163.3,151.8
	l0,0.1L163.3,151.8z M158.6,141.1l1,0.1h0L158.6,141.1L158.6,141.1z M157.2,125.5L157.2,125.5l0.7,0.9L157.2,125.5z M152.8,131.7
	L152.8,131.7L152.8,131.7l1.6-0.6L152.8,131.7z M142.1,184.2l-1,0.3L142.1,184.2L142.1,184.2z M141.5,454.2l0,0.3l0,0L141.5,454.2
	L141.5,454.2z M142.6,454.3l1,1.6h0L142.6,454.3L142.6,454.3z M144.5,455.6L144.5,455.6l-0.1,0.6l0,0L144.5,455.6z M149.9,453.4
	l0.5,0.8l0,0L149.9,453.4L149.9,453.4z M152.6,453l0,0.7l0.7,0.4h0l-0.7-0.4L152.6,453L152.6,453z M153.8,452.4L153.8,452.4l-0.5,0
	l0,0L153.8,452.4z M153.9,443.9l-0.8-0.4l0,0L153.9,443.9l0.3,0.9h0L153.9,443.9z M155,444.7l1.2,1v0L155,444.7L155,444.7z
	 M157.9,444.7l0.1,1.6l0.7,0.9h0l-0.7-0.9l-0.1-1.4L157.9,444.7z M161.1,446l0.5,0.5l0,0L161.1,446L161.1,446z M164.8,445.6l0.6,0.9
	l0,0L164.8,445.6L164.8,445.6z M167,559.7l0.4-0.9h0L167,559.7l-0.8,0.4v0L167,559.7z M174.4,559.5L174.4,559.5l-4-0.5v-0.1
	L174.4,559.5z M178.7,555.6l0.6,0l0,0L178.7,555.6l-0.2,0.7l0,0L178.7,555.6z M183.3,594.1l0.3-0.7l-0.5-0.3l0.7-1.5l0.5-0.2
	l-0.2-1.3l-1.2-1.4l1.4-0.5l0.4-1.7l-0.7-0.3l0.1-0.6l-0.7-1l0.1,0l-1.1,0.5h0l1.1-0.5l-0.1,0.4l0.7,0.9l-0.1,0.6l0.7,0.2l-0.4,1.7
	l-1.4,0.5l1.2,1.4l0.2,1.3l-0.5,0.2l-0.7,1.5l0.5,0.3L183.3,594.1l0.5,0.5l-0.5,0.2l0,1.1l-0.4,0.1l-0.7,2.1l0.8,0.3l1.1,1h0l-1.1-1
	l-0.8-0.2l0.7-2.2l0.4-0.2l0-1.1l0.5-0.2L183.3,594.1z M185.1,598.4l0.4,0.6l0,0L185.1,598.4L185.1,598.4z M185.5,556.4L185.5,556.4
	l0.6-0.4l0,0L185.5,556.4z M192.3,539L192.3,539l0.5-0.5l0,0L192.3,539z M198.4,514.7l1.8,0.9l0.3,1.3l0.1,0l-0.5-1.3L198.4,514.7
	L198.4,514.7z M202.1,537v0.1h0.6l0.4-1.4h0L202.1,537z M209.4,529.1l-0.5-0.6l0,0L209.4,529.1L209.4,529.1z M209.4,529.5
	L209.4,529.5l0.2-1.8l-0.4-1.1l-0.7,0.7l-0.9-1.1l-0.7,0.1l-0.2-0.4l-0.6,0.3l-0.5-0.3l0,0l0.5,0.3l0.6-0.3l0.2,0.4l0.7-0.2l0.9,1
	l0.7-0.9l0.4,1.4L209.4,529.5z M208.6,397.3l-0.6,0.1l0-0.3l0.6,0.3l1.5,1h0L208.6,397.3z M215.8,360.9l0.7,0.8l0,0L215.8,360.9
	L215.8,360.9z M213.5,397.2L213.5,397.2l-1.3,0.2l0,0L213.5,397.2z M216.1,399.4L216.1,399.4l-1.1,0.2l0,0L216.1,399.4z
	 M216.8,401.8l0.7-0.2l0,0L216.8,401.8L216.8,401.8z M219.7,402.3L219.7,402.3L218,402l0,0L219.7,402.3z M224.8,401.4L224.8,401.4
	l-1,0.1l0,0L224.8,401.4z M226.7,402.9L226.7,402.9l1.4-1l0,0L226.7,402.9z M235.3,412L235.3,412l-1.1,0.3l0,0L235.3,412z
	 M237.1,417.6L237.1,417.6l-1.5-0.4l0,0L237.1,417.6z M234.1,361.4L234.1,361.4l-0.3-0.2L234.1,361.4z M228,361.1L228,361.1
	l-0.9-1.6h0L228,361.1z M209.4,361.8L209.4,361.8L209.4,361.8L209.4,361.8z M206.7,361.8L206.7,361.8l-0.1-1.2h0L206.7,361.8z
	 M205.9,122.9l-1,0.6L205.9,122.9l-0.5-1.1l0.2-2h0l-0.2,2L205.9,122.9z M200.8,122.5l0.6-0.8l1.2,0.2l1.6-1l-0.2-0.6l0.2,0.6
	l-1.6,1l-1.2-0.2L200.8,122.5l-0.5-0.4L200.8,122.5z M199.1,122.6L199.1,122.6l0,1l-0.9,0.1l0.9-0.1L199.1,122.6z M198.1,123.7
	L198.1,123.7l-1.5-2.4l0.2-1.7l-0.2-0.1l0.2,0.1l-0.2,1.7L198.1,123.7z M195.6,118.2l0.6,1.2h0L195.6,118.2l-1.7-0.8l0,0
	L195.6,118.2z M194.4,116.5l-0.2,0.4L194.4,116.5L193,115L194.4,116.5z M189.3,116.9l1.2-1.3l1.3-0.4l0.2-0.6h0l-0.2,0.6l-1.3,0.4
	L189.3,116.9l-0.7,0l-0.3,0.3l0.3-0.3L189.3,116.9z M188,117.5L188,117.5l-1.3-0.5l0,0L188,117.5z M186.1,118.3l0.4-0.9L186.1,118.3
	l-0.5,0.1L186.1,118.3z M184.2,117.1l0.9,0.5L184.2,117.1l-0.4,0.3l0-0.2l0,0.2L184.2,117.1z M181.9,114.8l0.2,1.5l0.5-0.4l-0.5,0.4
	L181.9,114.8l-1.2,0.2l0,0L181.9,114.8z M179.2,114.6l0.7-0.2L179.2,114.6l-1.6-1L179.2,114.6z M176.9,111.7l-0.6,0l0,0L176.9,111.7
	L176.9,111.7z M175.9,111.3l-0.4-0.5l0.5-2.1h0l-0.5,2.1L175.9,111.3z M174.1,110.2l0.2-0.5L174.1,110.2l-2,0.4h0L174.1,110.2z
	 M172.1,110.6l-0.8-0.9l-0.1,0l0.1,0L172.1,110.6z M161.7,115l0.2-0.8l2.8-0.6l0.2-0.5l-0.2,0.5l-2.8,0.6L161.7,115l-2.6,1.9
	l-0.8-0.5l0.8,0.5L161.7,115z M147.7,188.1l-0.4,0.2l0,0L147.7,188.1z M147.6,189.1L147.6,189.1l-0.6-0.3L147.6,189.1z M144.4,185.1
	l0.9,1.9l-0.3,0.3l0.3-0.3L144.4,185.1l-0.5,0.4L144.4,185.1z M143,186l-0.4-0.2l0.3-0.4l-0.5-0.5l0.2-0.3l-0.2,0.3l0.5,0.5
	l-0.3,0.4L143,186z M142.9,184.4L142.9,184.4l-0.4-0.9h0L142.9,184.4z M140.7,184.7L140.7,184.7l-1.4-2L140.7,184.7z M138,182.5
	l0.2-0.1L138,182.5l-0.9-0.7h0L138,182.5z M130.3,332.7l0.5,1.4l-0.5,0.8l0.5-0.8L130.3,332.7l-1,0.5l-0.7-0.7l-0.4-0.7l0,0l0.4,0.7
	l0.7,0.7L130.3,332.7z M128.8,331.5l-0.2,0.1L128.8,331.5l-1-1.7l-0.9-0.7v0l0.9,0.7L128.8,331.5z M125.7,327.1l0.7,0.1l0.8,1.4l0,0
	l-0.8-1.4L125.7,327.1l-0.5,0.8l-0.7-0.3l0.7,0.3L125.7,327.1z M124.2,325.5L124.2,325.5l-0.6-0.5l-1.1,0l0,0l1.1,0L124.2,325.5z
	 M122.3,324.3L122.3,324.3l-0.6-0.1L122.3,324.3L122.3,324.3z M116.4,322.6l0.7-1l0.4,0.5l0.9-0.3l1.2,2.3l0.9-0.1l0.2-0.7l0.5-0.1
	l-0.5,0.1l-0.2,0.7l-0.9,0.1l-1.2-2.3l-0.9,0.3l-0.4-0.5L116.4,322.6l-0.4-0.9l-1,0.3l-0.4-0.2l0.5-1.1l0,0l-0.5,1.1l0.4,0.2l1-0.3
	L116.4,322.6z M112.2,316.5l0.1,1.8L112.2,316.5l-0.6-0.1l-0.1-0.1l0.1,0.1L112.2,316.5z M110.6,311.7l-0.4-1.2v0L110.6,311.7
	L110.6,311.7z M110.4,309.2l-0.8-0.8l0.1-0.8l-0.1,0.8L110.4,309.2z M108,309.7l0.8-1l0.1-0.9l0.7-0.3l0,0l-0.7,0.3l-0.1,0.9
	L108,309.7l-0.4,0.2L108,309.7z M104.3,299.9L104.3,299.9L104.3,299.9l-0.8,0.6L104.3,299.9z M102.5,300.4L102.5,300.4L102.5,300.4
	l-0.4,0.9L102.5,300.4z M101.8,302.3l0.5,0.4l0,0L101.8,302.3L101.8,302.3z M96.6,301.5l0.1-0.8l0,0L96.6,301.5L96.6,301.5z
	 M91.6,300.7L91.6,300.7L91.6,300.7L91.6,300.7z M88.1,298.1l0.5-0.4l0.9,0.3l0,0l-0.9-0.3L88.1,298.1L88.1,298.1z M71.4,297.3
	l-0.6-0.7l-1,1l-2.6-1.1l2.6,1.1l1-1L71.4,297.3l2-1.1L71.4,297.3z M76.5,296.8l0.3,0.3l0.2-0.1l-0.2,0.1L76.5,296.8z M80.5,298.6
	l0.3-2.1h0L80.5,298.6L80.5,298.6z M87.3,297.5L87.3,297.5l0.4-0.4h0L87.3,297.5z M90.1,298.8l0.6,1.1l-0.1,0L90.1,298.8z M93,301.7
	l-0.1-0.8l0,0L93,301.7L93,301.7z M102.2,389.2L102.2,389.2l-0.3,0.8l0,0L102.2,389.2z M102.8,390L102.8,390l-0.1,0.5l0,0L102.8,390
	z M122.2,480.8l-0.6-0.1l-0.6-0.7l-0.5-1.9l-1.2-0.2l-0.3-1l0,0l0.3,1l1.2,0.2l0.5,1.9l0.6,0.7L122.2,480.8l1.9-0.9l0,0l0.9,0
	l0.3-0.6l0,0l-0.3,0.6l-0.9,0L122.2,480.8z M125,493.8L125,493.8l0.8,0.6l0,0L125,493.8z M128.8,475.1L128.8,475.1l0.4,0.8h0
	L128.8,475.1z M130,470.8L130,470.8l1,0.5v0L130,470.8z M132.3,460.7L132.3,460.7l0.4,1.2h0L132.3,460.7z M140.6,537.4l0.5,0.1l0,0
	L140.6,537.4L140.6,537.4z M141,537.8l0.8-0.1l0,0L141,537.8L141,537.8z M141.8,538.8L141.8,538.8l0.7-0.1l0.1-0.6l0,0l-0.1,0.6
	L141.8,538.8z M143.9,539.6L143.9,539.6l0.8-0.2l0,0L143.9,539.6z M145.1,540.7L145.1,540.7l1-1l0,0L145.1,540.7z M147.5,542.8
	L147.5,542.8l1.4-0.8l0,0L147.5,542.8z M148.9,546.1l1.2,0l0,0L148.9,546.1L148.9,546.1z M151.9,548.7L151.9,548.7l1.1,0.2l0,0
	L151.9,548.7z M153.6,549.9L153.6,549.9l0.7-0.2l0,0L153.6,549.9z M154.3,550.5L154.3,550.5l1.6-0.2v0L154.3,550.5z M159.6,553.5
	l-2,0h0L159.6,553.5l1.8-1.2v0L159.6,553.5z M161.7,554.6l1.7-0.2l-0.1,0L161.7,554.6L161.7,554.6z M164.3,555.6l1-0.1l0,0
	L164.3,555.6L164.3,555.6z M163.5,560.3l-0.1-0.7v0L163.5,560.3l1.2,2.2h0L163.5,560.3z M165.4,561.9L165.4,561.9l0.8,0.6l0,0
	L165.4,561.9z M168,562.7l-1.4-0.5v0L168,562.7l0.7,1.5l1.2,1.2h0l-1.2-1.2L168,562.7z M168.6,566.7l1.8-0.6l0-0.6h0l0,0.6l-1.8,0.9
	l0.1,0.8l0-0.1L168.6,566.7z M169.4,569.5L169.4,569.5h2.6h0H169.4z M174.2,570.2l0-1.4l-0.9-0.5l0.7-1.3l-0.5-0.5h0l0.5,0.5
	l-0.7,1.3l0.9,0.5L174.2,570.2l1.1,0.1l-1.7,0.2l-1.1,2.1l3.2,1.2l0.4,1.1l0.9,0.2l0.2,0.6l-0.8,1.9l0.3,1h0l-0.3-1l0.8-1.9
	l-0.2-0.6l-0.9-0.2l-0.4-1.1l-3.2-1.2l1.1-2.1l1.7-0.2L174.2,570.2z M175.8,585.5l0.4-1.6l-0.6-1.2l0.4-3.3l-0.5-0.8h0l0.5,0.8
	l-0.4,3.3l0.6,1.1L175.8,585.5l0.4,1h0L175.8,585.5z M177.5,586.7l-0.8-1.1l0-0.6l0-0.1l0,0.4L177.5,586.7l1.3,0.8h0L177.5,586.7z
	 M184,619.5l-1.2,0.2l0.4,1.1l-1.4,0.8l0.5,0.9h0l-0.5-0.9l1.4-1l-0.4-1L184,619.5l0.3-0.5l-2.1-3.6h0l2.1,3.6L184,619.5z
	 M183.4,605.9l-0.1,0.6l0.5,0.7l-0.9,1.1l-0.2,1l-0.9,0.5l0.9,1.3l0,0.6l0.5,0l0.7,1.1l-0.5,1.8l-0.7,1h0l0.7-1l0.5-1.7l-0.7-1.2
	l-0.5,0l0-0.6l-0.9-1.3l1-0.5l0.3-1l1.1-1.1l-0.8-0.7L183.4,605.9v-1.6l1.3,0.2h0l-1.3-0.2V605.9z M186.5,601.2l-0.9,0.8l-0.4,2.5h0
	l0.4-2.4l0.9-0.6l0.3-1l-0.9-0.1l-0.2-0.9h0l0.2,0.8l0.9,0.3L186.5,601.2z M187.3,556.5L187.3,556.5l0.7-1.7l-0.1-1l0,0l0.1,1
	L187.3,556.5z M192.5,551.5l-0.6,1.4l-3.4,0.1l-0.1,1.1l0,0l0.1-1.1l3.4-0.1L192.5,551.5l1.5-1.8l-0.8-1.2h0l0.8,1.2L192.5,551.5z
	 M194.6,536.3l-1.3,2.4l0,0L194.6,536.3l-0.3-0.9l2.6-0.9l0,0l-2.5,0.9L194.6,536.3z M197,535.8l0.4-0.7l0,0L197,535.8L197,535.8z
	 M198.5,536.1l-0.4,0l0,0L198.5,536.1l0.3-1l0.6,0.1l0,0l-0.6-0.1L198.5,536.1z M208.3,538l-0.3,0l-0.1,0.8l-0.6,0l0,0.9l-1.8,0.1
	l-1.5-0.8l-0.5-0.8l-1.4,0.2l0,0l1.4-0.2l0.5,0.8l1.5,0.8l1.8-0.1l0-0.9l0.6,0l0.1-0.8L208.3,538l0.1,0l0.1,0.2l-0.1-0.2L208.3,538z
	 M210.5,533.7l-0.8,2.9l-0.7,0.5l-0.5,1.1l-1,0.1v0v-0.1v-1.1l1.5-0.5l1.2-2.9l0.6,0l0.1,0L210.5,533.7z M212.4,531.2l-0.6-0.2
	l-0.1,1l-0.7-0.3l-0.6,0.8v0l0.7-0.8l0.8,0.3l0.1-1L212.4,531.2l2-0.8v0L212.4,531.2z M215.4,531.7L215.4,531.7l0.8,0l0,0
	L215.4,531.7z M222.4,529.5v0.6l-0.8,0.4l-0.8,1.5l-1.7-0.1l-1.8-1.2l-1.3,0.2l-0.4,0.7h0l0.4-0.7l1.3-0.2l1.7,1.2l1.6,0.1l0-1.5
	l-0.2-0.4v-0.6l1.7-0.1l0.5,0L222.4,529.5z M225.8,528.5l-1.5,0.5l0.1,0.7l-0.9,0.6l-0.1-0.1l0.9-0.6l-0.1-0.7L225.8,528.5l-0.1-0.4
	l0.5-0.2l-0.2-0.3h0l0.2,0.3l-0.5,0.2L225.8,528.5z M227.4,526.9L227.4,526.9l1,0.4l2-0.7v0l-2,0.7L227.4,526.9z M230.1,551.9l1,0.3
	l0,0L230.1,551.9L230.1,551.9z M229.7,554.3l0.8,0.5l0.8-0.4v0l-0.8,0.4L229.7,554.3L229.7,554.3z M231.8,573.1L231.8,573.1l1.2,0.6
	v0L231.8,573.1z M235.5,525.5l-1.4,0.6l-1,0l-0.4,0.4l-0.5-0.4l-0.6,0.6l0,0l0.6-0.6l0.5,0.4l0.4-0.4l1,0L235.5,525.5l0.5-0.7l0,0
	L235.5,525.5z M237,522.6l-0.2,0.6l-0.6,0.2l0,0.7l-0.6,0.3l0,0l0.6-0.3l0-0.7l0.6-0.2L237,522.6l0.6,0.1l-0.1-0.3h0l0.1,0.3
	L237,522.6z M239,518.9l0.4,0.1l-0.3,0.6l0.6,0.6l0.1-1.7l0.5,0.2l2.7,4.9l-1.3-1l-1.5,0l-2.2-1.9L239,518.9z M238.2,521.6l1.6,1.2
	l1.5,0l1.3,1.7l0.8,0.2v0.2l-1-0.4l-1-1.7l-1.6,0L238.2,521.6l-1.4,0.3l-0.1,0.6h0l0.1-0.6L238.2,521.6z M239,419.5l0.9-0.4l0,0
	L239,419.5L239,419.5z M242,418.7l-1.3,0.4l-0.2,0.4l-0.3-0.2l0.3,0.2l0.2-0.4L242,418.7l-0.5-0.9l0.7-0.1l1.1-1.2l-1.9-2.1v-1.2
	l1.4-1.8l0.2-1.3l1.3-1l0-1l1.1-0.4l0.1-1.5l1.1-1.3v0l-1.1,1.3l-0.4,1.5l-0.9,0.4l0.2,1l-1.1,1l-0.3,1.3l-1.3,1.8v1.2l1.9,2.1
	l-1.2,1.2l-0.6,0.1L242,418.7l1.4,2.7h0L242,418.7z M250.2,424.6l0.2-0.3l-0.9-0.7l-0.3-0.5l-2.9-1.7h0l2.9,1.7l0.3,0.7l0.9,0.6
	L250.2,424.6l0.7,0.2l-0.2,0.5l0.5,1.6l0.8,1l-0.8-1l-0.5-1.6l0.2-0.5L250.2,424.6z M263.7,435.4L263.7,435.4l-0.2,1.6l0,0
	L263.7,435.4z M264.9,436.6L264.9,436.6l0.4,0.4l0,0L264.9,436.6z M267,436.5L267,436.5l0.8,0.2l0,0L267,436.5z M269.3,435.4
	L269.3,435.4l0.3,0.5l0,0L269.3,435.4z M278.7,432.9l-0.3-0.7l0,0L278.7,432.9l1.2,0.6l0,0L278.7,432.9z M280.6,458.6l0.1-0.4v0
	L280.6,458.6l-1.2,0.1l0,0L280.6,458.6z M281,431.8L281,431.8l0.2,0.5l0,0L281,431.8z M281.7,430.2L281.7,430.2l0.5,0.3l0,0
	L281.7,430.2z M284.4,422.3L284.4,422.3l0.5,0.7l0,0L284.4,422.3z M285.3,422.9L285.3,422.9l0.1,1.4l0,0L285.3,422.9z M286.4,427.6
	l-0.1-0.7l0.7-0.8l-0.2-0.4l-1.3-0.8l0.4-1.4h0l-0.4,1.4l1.3,0.6l0.2,0.5l-0.7,0.8L286.4,427.6l0.9,0.8l0,0L286.4,427.6z
	 M290.6,424.2L290.6,424.2l0.9,0.6l0,0L290.6,424.2z M292.4,425.8l-0.1-0.8h0L292.4,425.8l0.8,0.2l0,0L292.4,425.8z M294.8,425.3
	L294.8,425.3l0.7,0.2l0,0L294.8,425.3z M298.4,418.1l-1.3-0.6l0,0L298.4,418.1l0.1,0.5l0,0L298.4,418.1z M298.7,417.7L298.7,417.7
	l0.9,0.2l0,0L298.7,417.7z M302.3,413.3l-1.2,0h0L302.3,413.3l0.9,0.9l0,0.1L302.3,413.3z M304,412.7l0-0.3l0.4,0l-0.2-0.8l0,0
	l0.2,0.8l-0.4,0L304,412.7l0.7,0.1l0,0L304,412.7z M305,411.5L305,411.5l0.6,0.5l0,0L305,411.5z M308.8,414.6l-0.8-1.4l0.3-0.5
	l-1-0.1l-1.9-2.8v0l2,2.8l0.8,0.1l-0.2,0.5L308.8,414.6l0.6,0.2v0L308.8,414.6z M311.2,416.8l-1.6-3.9l0-0.1L311.2,416.8l1.3,0.7h0
	L311.2,416.8z M314.2,416.9L314.2,416.9l1.1,1.2l0,0L314.2,416.9z M320.2,415.6L320.2,415.6l0.5,0.3l0,0L320.2,415.6z M320.5,415.3
	L320.5,415.3l0.7,0.1l0,0L320.5,415.3z M320.7,415L320.7,415l0.6,0.2l0,0L320.7,415z M321.7,412.7L321.7,412.7l1.1,0.7l0,0
	L321.7,412.7z M324.6,411.6L324.6,411.6l0.4,1l0,0L324.6,411.6z M336.2,350.8l0-0.4l0,0L336.2,350.8L336.2,350.8z M337.6,351.7
	l1.2-1.7h0L337.6,351.7L337.6,351.7z M339.8,349.3l0.1-0.7L339.8,349.3L339.8,349.3z M345.3,349.9L345.3,349.9l0.7,0.9h0
	L345.3,349.9z M351,351.4l-0.6,0.3l-0.1,0.6l0.1-0.6L351,351.4l1.1-1.9L351,351.4z M352.6,348l-1.1-1.2l0.3-0.3l-0.3,0.3L352.6,348
	L352.6,348z M352.9,345.5l-0.7-0.1l0.2-0.4l-0.5-0.2l0.5-0.8l-0.2-1l-1.1-0.7l0.3-0.9l0.8-0.4l-0.8,0.4l-0.3,0.9l1.1,0.7l0.2,1
	l-0.5,0.8l0.5,0.2l-0.2,0.4L352.9,345.5L352.9,345.5z M360.4,345.6l0.1-0.4l0,0L360.4,345.6L360.4,345.6z M366,347.7l0.8,0l0.2-0.2
	h0.5l0.2-0.5l0-0.6l0,0l0,0.6l-0.2,0.5H367l-0.2,0L366,347.7l-0.1,1.8h0L366,347.7z M368,379l-0.6,0.1l0.5,0.5l-0.1,0l-0.4-0.5
	L368,379L368,379z M372,352L372,352l-0.7,1.7l0,0L372,352z M379.8,356.7L379.8,356.7l0,0.6l0,0L379.8,356.7z M380.4,357.8
	L380.4,357.8l-0.2,1.3l0,0L380.4,357.8z M380.6,310l-0.9,0.1l0,0L380.6,310l0.5-0.6l0,0L380.6,310z M382.4,308.5l-1.6-0.6l0,1.3l0,0
	l0-1.3L382.4,308.5l-0.1-0.5l0.7-0.5l0,0l-0.7,0.5L382.4,308.5z M384.6,307.2l-2.3-0.1l0,0L384.6,307.2l0.1-0.8l0,0L384.6,307.2z
	 M385.8,304l-0.9,0.2l-0.6,1l-0.9,0.1l0,0.6l0,0l0-0.6l0.9-0.1l0.6-1L385.8,304l1-2.2l0,0L385.8,304z M386.8,298.9l-0.2,1.1l0,0
	L386.8,298.9L386.8,298.9z M386.4,301.6L386.4,301.6l0.7-1.7l0,0L386.4,301.6z M388.4,298.5l-0.8,0.2l-1.5-0.6l0,0l1.5,0.6
	L388.4,298.5l0.4-0.7l0,0L388.4,298.5z M388.3,297.2L388.3,297.2l0.5-0.7l0,0L388.3,297.2z M388.4,292.4l0.2,0.6l-0.6,0l0.2,0.6
	l-0.9,0.6l-0.8,0v0l0.8,0l0.7-0.6l-0.1-0.6l0.7,0L388.4,292.4l1.6-0.9l-0.1-0.7l-1.7-2.1l0,0l1.7,2.1l0.1,0.7L388.4,292.4z
	 M388.7,278l-0.3,0.7l-0.3-0.2l-0.2,1.1l-0.5,0l-0.5,0.6l-0.5-0.2l-0.4,1.4l0.1,1.1h0l-0.1-1.1l0.4-1.1l0.5,0.1l0.5-0.7l0.6-0.1
	l0.3-1.1l0.4,0.2L388.7,278l0.7,0.2v0L388.7,278z M391.2,278L391.2,278l-0.3-1.1l0.6-1l0,0l-0.6,1L391.2,278z M391.2,275.9
	L391.2,275.9l0.2-1.1l0,0L391.2,275.9z M388.6,273l0.2-1l0,0L388.6,273L388.6,273z M388.3,271.8L388.3,271.8l0.5-0.5l0,0
	L388.3,271.8z M389.2,273L389.2,273l0.5,1l0,0L389.2,273z M391.9,279.2l-0.8-0.1l-0.4-0.5l-0.5,0.3l-0.8-0.2v0l0.8,0.2l0.3-0.3
	l0.5,0.5L391.9,279.2l0-0.5l0,0L391.9,279.2z M394.6,262.2l-1.3,0.6l-1.4,1.6l-0.6,0l-0.5,0.8l-0.9-0.2l0.1,1.5l-0.6-0.1l-0.1,0.3
	l-0.3-0.5l-1.4,1l-0.2,2.3l-0.5,1.3l0.4,1.7h0l-0.4-1.7l0.5-0.9l0.2-2.5l1.4-1.1l0.3,0.4l0.1-0.4l0.6,0.1l-0.1-1.5l0.9,0.2l0.5-0.8
	l0.6,0l1.4-1.6L394.6,262.2l1.5-1.5l0,0L394.6,262.2z M400.7,243.6l-0.2-0.6l0,0L400.7,243.6L400.7,243.6z M426,259.6L426,259.6
	l-0.4,0.1h0L426,259.6z M423.6,262.7L423.6,262.7l-0.4-0.2l0,0L423.6,262.7z M423.5,261.7L423.5,261.7l0.8,0.3l0,0L423.5,261.7z
	 M424.1,261.3L424.1,261.3l0.6-0.2l0,0L424.1,261.3z M538.6,233.4l1.5,0.4l0.7,0.8l1,0.3l0.2,0.9l-0.1-0.9l-0.8-0.3l-1-0.8
	L538.6,233.4L538.6,233.4z M542,236l-0.7,1.5l0,0L542,236z M542,237.3l0.1,0.8l0,0L542,237.3L542,237.3z M540.4,240.5L540.4,240.5
	l-1,0.3L540.4,240.5z M543.2,237.2l0.3,0.4h0L543.2,237.2L543.2,237.2z M534.4,227.9l2-0.8l4.4,0.4h0l-4.2-0.4l-2.2,1.2l-3,0.5v0
	L534.4,227.9z M521,232.3l0.8-0.4l0.4-0.9l3-0.8l5.2-2.1v0l-5.2,2.1l-3.1,0.8l-0.3,0.8L521,232.3l-0.8,1.2h-0.1h0.1L521,232.3z
	 M518.3,233.3l0.7,0.1h0L518.3,233.3l-4.9,1.6v0.1L518.3,233.3z M500.1,271.4L500.1,271.4l-0.3-1.3l0,0L500.1,271.4z M490.3,294.5
	L490.3,294.5l0-1.5l0.6-0.7l0.5-1l-0.3-0.1l0,0.4h0l0.3,0l-0.5,0.7l-0.6,0.9L490.3,294.5z M487.9,298.7l-0.7,1.2l0.1,1.6h0l-0.1-1.7
	L487.9,298.7l-0.2-0.2h0L487.9,298.7z M488.6,294.7l-0.6,0.7l0.6,0.7L488,298l0.6,0.5h0L488,298l0.6-1.8l-0.6-0.8L488.6,294.7
	l-0.7-1.4l-0.5-0.2v0l0.5,0.2L488.6,294.7z M491.6,290.9L491.6,290.9l-0.9-1.7l-0.3-0.9v0l0.3,0.9L491.6,290.9z M496.1,276.5
	L496.1,276.5l1.1-1.7L496.1,276.5z M501.4,268.9l-0.1,0.2L501.4,268.9L501.4,268.9z M502.7,271.1L502.7,271.1l-0.9,1l0,0
	L502.7,271.1z M503.5,271.4l0.6-0.9l0,0L503.5,271.4L503.5,271.4z M505.6,266.6l-0.7,2.2l0.5,2.7h0l-0.5-2.7l0.7-1.8l-0.4-2.3
	l1.3-3.4v0l-1.3,3.3L505.6,266.6z M509.1,261.5L509.1,261.5l0.2-2.7l1.7-2.3h0l-1.7,2.3L509.1,261.5z M511.8,258.3l0.5-0.7
	L511.8,258.3L511.8,258.3z M513.4,256.9l0.2-1.7h0L513.4,256.9L513.4,256.9z M514.6,254.6l0.1-0.7l0,0L514.6,254.6L514.6,254.6z
	 M516.8,253.4L516.8,253.4l0.6-1l0,0L516.8,253.4z M514,233.8L514,233.8l-1.2,0.6l0,0L514,233.8z M511.5,233.8L511.5,233.8l-0.4,0.2
	l0,0L511.5,233.8z M506.9,239l1.8-2.5l2-1l0-0.8l-0.9-1.2l0.8-0.6l0,0l-0.8,0.6l0.9,1.2l0,0.8l-2,1L506.9,239l-2,1.5L506.9,239z
	 M484.1,246.6l0.8,0.5l0,0.4l2,1h0l-2-1l0-0.4L484.1,246.6L480,246h0L484.1,246.6z M477.4,286.4L477.4,286.4l1.9,0.5l0,0
	L477.4,286.4z M478.2,280.5l1.2-2.4v0.1L478.2,280.5L478.2,280.5z M479.7,247.1l-0.2,0.1L479.7,247.1L479.7,247.1z M478.6,247.6
	L478.6,247.6L478.6,247.6L478.6,247.6z M473,266.5l-2.6,3v0.1L473,266.5L473,266.5z M471.7,270.1l-0.9,0.8l0,0L471.7,270.1
	L471.7,270.1z M480.1,285.6l2.6-0.9l0,0L480.1,285.6L480.1,285.6z M459.9,269.4l0.5-0.5l0,0L459.9,269.4L459.9,269.4z M449.1,271.8
	l0.5-0.5l0,0L449.1,271.8L449.1,271.8z M440.6,270l0.4-0.5l0,0L440.6,270L440.6,270z M427.9,271.9l0.2,2l-0.4,1.6h0l0.4-1.6
	l-0.2-1.5L427.9,271.9z M429.2,276.9l-2.4-2.5h0l2.4,2.6L429.2,276.9z M429.1,271.4L429.1,271.4l0.3-0.4l-0.3-0.3l0,0l0.3,0.3
	L429.1,271.4z M446.6,270l-0.1-0.6l0,0L446.6,270L446.6,270z M458.2,270.9L458.2,270.9l0.1-0.4l-0.4,0.5l-0.6-0.1l0,0l0.6,0.1
	l0.4-0.5L458.2,270.9z M458.3,269.8l-0.6,0.1l0,0L458.3,269.8L458.3,269.8z M462,269.1l0.2-2.2l0,0L462,269.1L462,269.1z M476.6,287
	L476.6,287l1.1,0.2l0,0L476.6,287z M476.6,307.3L476.6,307.3l0.1-0.4l0,0L476.6,307.3z M477.5,306.7L477.5,306.7l0.4-1.3h0
	L477.5,306.7z M479.1,305.5L479.1,305.5l0.2-1.9l0,0.1L479.1,305.5z M480.6,302.5L480.6,302.5l-0.2-3.1v0L480.6,302.5z M484.7,302
	L484.7,302l0.1-0.4l0,0L484.7,302z M493.4,287.3L493.4,287.3l0.6-3.9h0L493.4,287.3z M495.6,282.8l-0.4-0.7l0.5-0.8l-0.3-1.2
	l-1.3-0.6l-1.2-1.7l0,0l1.2,1.7l1.3,0.6l0.3,1.2l-0.5,0.8L495.6,282.8L495.6,282.8z M521.1,251.6l-2.4,1.3l-1.3,0v0l1.3-0.3l2.3-1
	l1.7-2.1h0L521.1,251.6z M527.1,247.4L527.1,247.4l1.6-1.8h0L527.1,247.4z M529.7,246.2L529.7,246.2l1.3-1.1L529.7,246.2z
	 M533.7,243.9L533.7,243.9l0-1.7l1.1-1.2l0,0l-1.1,1.2L533.7,243.9z M542.3,240.5l-0.2,0.6l0,0L542.3,240.5l2.1-1.6l-0.8-1.5l0,0
	l0.8,1.5L542.3,240.5z"/>
</svg>
