<svg id="Layer_1" xmlns="http://www.w3.org/2000/svg" viewBox="0 0 532.3 143.5">
  <style>
    .st0{fill:#D3D2D1;} .st1{fill:url(#SVGID_1_);} .st2{fill:url(#SVGID_2_);} .st3{fill:#E4F0F9;} .st4{fill:#3D3D3D;} .st5{fill:#E8F9F7;} .st6{fill:#D1AFF9;} .st7{fill:#FCAD81;} .st8{fill:#F9F382;} .st9{fill:#84F7F1;} .st10{fill:#5A05D3;} .st11{fill:#0F868C;} .st12{fill:#C94605;} .st13{fill:#194C84;} .st14{fill:#333232;} .st15{fill:#3A3A3A;} .st16{fill:#FFFFFF;} .st17{fill:#FFFFFF;stroke:#FCAD81;stroke-miterlimit:10;} .st18{fill:#FFFFFF;stroke:#D1AFF9;stroke-miterlimit:10;} .st19{fill:#CCCCCC;stroke:#FFFFFF;stroke-width:0.5;} .st20{fill:none;stroke:#5A05D3;stroke-miterlimit:10;} .st21{fill:#F9E8E8;} .st22{fill:#F0F2F2;} .st23{fill:#B0E2E0;stroke:#FFFFFF;stroke-miterlimit:10;} .st24{fill:#0F868C;stroke:#FFFFFF;stroke-miterlimit:10;} .st25{fill:#A2CDF4;stroke:#FFFFFF;stroke-miterlimit:10;} .st26{fill:#F19B00;} .st27{fill:#B0E2E0;} .st28{fill:#A2CDF4;} .st29{fill:none;stroke:#3A3A3A;stroke-miterlimit:10;} .st30{fill:url(#SVGID_3_);} .st31{fill:#B5B4B4;} .st32{fill:#C5DCEF;} .st33{fill:#C13308;} .st34{fill:#FBB20B;} .st35{fill:#C67C06;} .st36{fill:#F9D998;} .st37{fill:#F2F2F2;} .st38{fill:#F7CD8B;} .st39{fill:#06704B;} .st40{fill:#282727;} .st41{fill:#E30520;stroke:#E30520;stroke-miterlimit:10;} .st42{fill:#FCFBFA;stroke:#E30520;stroke-miterlimit:10;} .st43{fill:#E30520;} .st44{fill:#B2B1B1;} .st45{fill:#C1843A;} .st46{fill:none;stroke:#FFFFFF;stroke-miterlimit:10;} .st47{fill:none;stroke:#0F868C;stroke-width:2;stroke-miterlimit:10;} .st48{fill:#B3F4AE;} .st49{fill:#138808;} .st50{fill:#FF9933;} .st51{fill:#EFC79C;} .st52{fill:#60605F;} .st53{opacity:0.34;} .st54{fill:#D6D6D6;}
  </style>
  <path d="M88.7 51.9c-1 4.2-3.7 9.6-7.9 16.1-4.3 6.5-8 10.9-11.2 13.2-2.2 1.6-4.4 2.4-6.6 2.4-1.3 0-4.3-1-9-2.9-.9-.4-1.4-.8-1.4-1.3 0-.8 1.1-1.2 3.2-1.2 3.6 0 6.3-.7 8.1-2.2 3.8-2.9 7.3-6.8 10.7-11.7 4.3-6.3 6.9-12.5 7.7-18.5.5-3.3-.7-5.3-3.4-6-1.3-.3-2.5-.3-3.8-.1-6.1.3-11.9 1.6-17.5 4-6.5 23.6-12.5 42.4-18 56.5.3-.1 1.5-.8 3.5-2 1.1-.7 2-1 2.7-.9 1.1.2 2.2 1.3 3.3 3.4.9 1.7 1.3 2.9 1.3 3.8 0 1.1-.7 1.5-2.1 1.4-1-.1-2.6.4-4.9 1.6-2.5 1.3-4.6 2.8-6.3 4.6-.9.9-1.8 1.3-2.7 1.3-1.3 0-2.9-.9-4.7-2.6-1.2-1.1-1.7-2.1-1.5-2.9.1-.7.7-1.1 1.9-1.4 9.5-22 16.6-42 21.3-60.2-14.7 6.6-22 12.8-22 18.5 0 .8.1 1.6.4 2.4.1.3.4 1.3 1.1 3 .2.4.2.8.2 1.1 0 1.1-.4 1.6-1.3 1.6-1.2 0-3.5-3.4-7-10.2-.5-.9-.8-1.9-.8-2.8 0-2.3 1.4-4.8 4.3-7.5 2-1.8 5.7-4.3 11.2-7.5 5.9-3.4 11.2-5.9 15.9-7.6.5-1.9.7-3.5.7-4.7 0-1.6.4-2.3 1.2-2.3 1.1 0 2.9 1.4 5.6 4.3 6.4-1.9 10.8-2.8 13.1-2.8 4.3.1 7.4 2.4 9.3 6.9 2.3 1.7 3.9 3.1 4.7 4 1 1.2 1.5 2.7 1.5 4.3 0 1.2-.3 2.8-.8 4.9zM125.3 72.8c-3.6 10-6.1 18.3-7.4 25.1.6-.5 1.4-1.4 2.3-2.5 1-1.1 1.6-1.8 1.8-2 .5-.7 1.1-1.1 1.8-1.1.6 0 .9.3.9.9 0 .4-.2.8-.5 1.2-3.7 5.4-6.1 10.9-7.3 16.5-.4 1.6-.9 2.3-1.6 2.3-.7 0-1.9-.6-3.7-1.9-1.1-.7-1.7-1.3-1.8-1.8-.2-.4-.2-1.3 0-2.6 1.6-9.9 3.7-18.2 6.2-24.7-3.4 5.5-8 11.6-13.9 18.3-5.1 5.8-8.8 9.5-11.1 11.1-1.6 1.1-2.9 1.7-3.8 1.7-.7 0-1.8-.6-3.2-1.7-2.1-1.2-3.1-3-3.1-5.2 0-.4 0-.9.1-1.5.7-5.8 3.2-12.5 7.6-20.2C93 77 98 70.5 103.7 65.3c1.8-1.7 3.5-2.6 4.9-2.5 1.4.1 4.1 1.9 8 5.6.4.3.5.6.5 1 0 .6-.4.9-1.2.9-.3 0-.6-.1-.9-.2-2.8-1.2-5-1.1-6.7.1-3.7 2.7-7.7 7.4-12.2 14.2-5.2 7.8-8.3 14.8-9.3 21.1 0 .3-.1.5-.1.8 0 1 .4 1.5 1.2 1.5 1.3 0 2.9-.9 4.7-2.8 4.4-4.3 9.1-9.6 14.1-16.1 5.1-6.7 8.4-11.7 9.8-15.1 1.1-2.5 1.7-4.3 2.1-5.3.5-1.8 1.1-2.6 1.6-2.6s2 .8 4.1 2.4c.9.7 1.4 1.3 1.5 1.8.1.8-.1 1.6-.5 2.7zM177.9 20.9c.5.4.8.8.8 1.2 0 .7-.4 1.1-1.3 1.1-.4 0-.8-.1-1.2-.4-1.8-.9-3.1-1.3-4-1.3-2.5 0-5.2 2.4-8.1 7.1-10.6 17.3-18.2 39.7-22.7 67.1-.1.7-.3 1.7-.6 3 .9-.9 2.2-2.5 4-4.6 1-1.2 1.8-1.8 2.2-1.8 1 0 1.1.6.2 1.8-3.8 5.4-6.2 11-7.4 16.8-.4 1.4-1 2.2-1.6 2.2-.3 0-.7-.2-1.2-.5-2-1.3-3.1-2.1-3.4-2.3-.8-.8-1.2-1.8-1.2-3 0-.6.1-1.4.3-2.3 4.5-24.9 10.4-46.1 17.5-63.6 5.4-13.2 10.2-21.8 14.5-25.7 1.2-1.1 2.3-1.6 3.5-1.6 1.1 0 2.4.7 4.1 2 1.7 1.7 3.7 3.2 5.6 4.8z"/>
  <path d="M225 93.2c-2.5 3.8-6.3 10.5-11.4 20-.5.9-.8 1.3-.9 1.3-.4.2-1.2.1-2.5-.3-2.7-.8-4-1.6-4-2.3 0-.4.2-1.1.5-1.9 2.9-6.8 5.4-14.1 7.5-21.9 2.1-7.8 3.1-13.7 3-17.8 0-1.4-.5-2.1-1.5-2.1-.7 0-1.4.4-2.3 1.1-3.3 2.7-7.6 7.9-12.9 15.7-6.3 9.4-10.8 18.1-13.4 26.3-.3.9-.5 1.5-.7 1.6-.2.1-.8 0-1.7-.3-1.3-.5-2.6-1.1-3.8-2-.6-.4-.9-.9-.9-1.3 0-.1.3-.8.9-2.3 5.1-12.8 7.7-25.2 7.7-37.2 0-1.2-.4-1.8-1.1-1.8-.5 0-1.2.3-1.9 1-4.2 3.5-8.8 9.6-13.9 18.2-4.9 8.2-8.6 15.9-11 23.1-.6 1.8-1.3 2.8-1.9 2.8-.8 0-2.4-.9-4.8-2.6-.6-.4-.9-.7-.9-1.1 0-.4.4-1.1 1.3-2 1.6-3.4 3.4-9.3 5.4-17.6 2.3-9.5 3.3-16.4 3-20.7-.6.6-1.6 1.6-3 2.9s-2.5 2.4-3.2 3.1c-.5.5-1 .8-1.3.8-.6 0-.9-.4-.9-1.2 0-.6.2-1.2.6-1.6 2.2-2.3 4.4-4.9 6.5-8 .8-1.1 1.5-1.6 2.1-1.6.4 0 1.3.6 2.5 1.9 1 .4 2 .7 2.9 1.1.8.4 1.2 1.1 1.2 2.2 0 .3 0 .6-.1 1-1 7.5-2.5 14.6-4.5 21.1 6.9-12.4 13.3-21.2 19.3-26.5.8-.7 1.6-1.1 2.4-1.1.8 0 2.1.5 3.8 1.6 1.6.7 2.7 1.3 3.2 1.9.6.7.9 1.8.9 3.3 0 8-.9 15.1-2.8 21.3 7.6-12.1 14.6-21 20.8-26.9.8-.8 1.7-1.2 2.6-1.2 1.2 0 2.6.8 4.3 2.3 3 .5 4.5 2.3 4.3 5.6-.5 9.4-2.5 18.5-6.1 27.3 2-2.3 3.5-4.3 4.6-6 .5-.8 1.1-1.2 1.8-1.2.6 0 .9.3.9.9-.1.1-.3.5-.6 1.1zM316.6 40.1c0 6.1-1.3 12.9-3.9 20.4-.7 2-1.7 3-2.9 3 .1 0-1-.1-3.2-.4-1.9-.2-2.8-.8-2.8-1.8 0-.4.3-.9 1-1.3.9-1.5 1.8-4.4 2.8-8.5 1.1-4.7 1.6-8.5 1.4-11.5-.2-2.3-1.3-3.4-3.5-3.4-1.2 0-2.5.5-4 1.6-4.8 3.6-9.5 10.2-14.2 19.7-4.5 9.2-9.8 23-15.8 41.4-.9 2.7-2.3 4.3-4.3 4.9 10.3 0 21.2.6 32.8 1.8 1.8.2 2.9.1 3.3-.3.2-.2.7-1.1 1.5-2.8.5-1 1-1.5 1.5-1.5s1 .4 1.4 1.3c1.7 3.2 2.5 5.5 2.5 6.9 0 1.1-.8 2.3-2.3 3.8-1.7 1.5-2.9 2.3-3.8 2.3-.7 0-1.7-.2-3.2-.6-9.1-2.5-19.2-3.8-30.2-3.8-3 0-6 .1-8.8.4-2 .2-3.1.4-3.5.6l-1.1 1.9c-1 1.7-2.2 2.6-3.6 2.6-.9 0-1.5-.4-1.8-1.3-1.1-3.2-1.7-5.3-1.7-6.2 0-2.9 4.2-4.6 12.7-4.9 6.6-23.2 13.6-41.7 21-55.3 6.3-11.6 11.7-17.7 16.2-18.3 1.2-.2 4.5 1 9.7 3.5 1.3-.1 2.3-.1 2.9-.1 1.8 0 2.9.4 3.3 1.2.4.5.6 2.1.6 4.7zM346.9 95.2c-9.5 12.1-16.2 18.2-20 18.2-1.8 0-4.2-1.3-7-3.8-2.9-1.4-4.4-3.2-4.4-5.5 0-.4 0-.9.1-1.3.7-5.4 2.1-11.3 4.3-17.8-1.4-.7-2.2-1.4-2.2-2.1 0-.5.4-.8 1.2-.8.6 0 1.3.2 1.9.5 3.5-7.8 6.6-13.4 9.4-16.6 1.8-2.2 3.4-3.3 4.9-3.3.7 0 2.3.6 4.9 1.7-.2-1.2.1-1.9 1-2.1h2.8c1.7 0 2.5.3 2.5.9 0 .1-.1.4-.2 1-.1.5-.2 1.1-.2 1.5 0 1.4 0 3.1.1 5.2 0 2.1.1 3.5.1 4.2 0 4.8-1.3 8.2-4 10.1-2.4 1.8-5.2 2.6-8.2 2.6-1.6 0-4.3-.4-8-1.3-.7 1.2-1.4 3.6-2.2 7.1-1.1 4.5-1.6 8.4-1.5 11.8 0 2 .7 3 1.9 3 .5 0 1.1-.1 1.8-.4 4.5-1.6 10.8-6.5 18.9-14.6.5-.5 1-.8 1.5-.8.7 0 1.1.4 1.1 1.1.1.6-.1 1-.5 1.5zm-6.8-25.9c0-1.5-.3-2.3-1-2.3-.4 0-1.1.3-1.9.9-3.8 3.1-7.2 8.5-10.1 16.2.8.1 2.1.2 4.1.4 3.2.1 5.5-.6 7.1-2.2 1.2-1.2 1.8-3.1 1.9-5.8-.1 2-.1-.4-.1-7.2zM392.4 72.8c-3.6 10-6.1 18.3-7.4 25.1.6-.5 1.4-1.4 2.3-2.5 1-1.1 1.6-1.8 1.8-2 .5-.7 1.1-1.1 1.8-1.1.6 0 .9.3.9.9 0 .4-.2.8-.5 1.2-3.7 5.4-6.1 10.9-7.3 16.5-.4 1.6-.9 2.3-1.6 2.3-.7 0-1.9-.6-3.7-1.9-1.1-.7-1.7-1.3-1.8-1.8-.2-.4-.2-1.3 0-2.6 1.6-9.9 3.7-18.2 6.2-24.7-3.4 5.5-8 11.6-13.9 18.3-5.1 5.8-8.8 9.5-11.1 11.1-1.6 1.1-2.9 1.7-3.8 1.7-.7 0-1.8-.6-3.2-1.7-2.1-1.2-3.1-3-3.1-5.2 0-.4 0-.9.1-1.5.7-5.8 3.2-12.5 7.6-20.2 4.4-7.7 9.4-14.2 15.1-19.4 1.8-1.7 3.5-2.6 4.9-2.5 1.4.1 4.1 1.9 8 5.6.4.3.5.6.5 1 0 .6-.4.9-1.2.9-.3 0-.6-.1-.9-.2-2.8-1.2-5-1.1-6.7.1-3.7 2.7-7.7 7.4-12.2 14.2-5.2 7.8-8.3 14.8-9.3 21.1 0 .3-.1.5-.1.8 0 1 .4 1.5 1.2 1.5 1.3 0 2.9-.9 4.7-2.8 4.4-4.3 9.1-9.6 14.1-16.1 5.1-6.7 8.4-11.7 9.8-15.1 1.1-2.5 1.7-4.3 2.1-5.3.5-1.8 1.1-2.6 1.6-2.6s2 .8 4.1 2.4c.9.7 1.4 1.3 1.5 1.8.1.8-.1 1.6-.5 2.7zM438.4 69.5c-1 2.2-2.1 4.9-3.3 7.9.3.8 1.2 2.1 2.6 4 .3.4.2.8-.2 1.2-.4.4-.9.6-1.6.6-.9 0-1.8-.4-2.5-1.3-2.6 5.8-5.5 11.7-8.8 17.8-3.4 6.4-5.9 10.4-7.4 11.9-1.3 1.3-2.6 1.9-3.9 1.9-1.2 0-2.3-.5-3.2-1.5-1.5.6-2.6.9-3.2.9-1.4 0-2.4-1.2-3.2-3.6-1-3.4-1.5-8.1-1.5-14.4 0-8.9.8-15.5 2.3-19.9-.9.8-2.5 2.5-4.9 5.2-.4.5-.9.7-1.5.7-.7 0-1.1-.3-1.1-1 0-.4.2-.8.5-1.2 2.3-3.2 5.4-7.4 9.2-12.6 1-1.4 2-2.1 3-2.1 1.2 0 3 .9 5.4 2.8.5.4.8.9.8 1.4 0 1-.7 1.7-2.1 2.2-3.4 7.3-5.2 15.6-5.2 24.8 0 4.7.6 8.7 1.7 11.8.4 1.3 1 1.9 1.8 1.9.7 0 1.6-.7 2.6-2 3-4.2 6-9.3 8.9-15.4 2.6-5.4 4.4-9.8 5.2-13.1-.5-.9-.8-2.1-.8-3.6 0-2.7.9-6.2 2.6-10.6.7-1.8 1.7-2.8 2.9-2.8.7 0 2 .6 4.1 1.8 1 .6 1.5 1.4 1.5 2.3.1 1-.2 2.2-.7 4zM470.4 95.2c-9.5 12.1-16.2 18.2-20 18.2-1.8 0-4.2-1.3-7-3.8-2.9-1.4-4.4-3.2-4.4-5.5 0-.4 0-.9.1-1.3.7-5.4 2.1-11.3 4.3-17.8-1.4-.7-2.2-1.4-2.2-2.1 0-.5.4-.8 1.2-.8.6 0 1.3.2 1.9.5 3.5-7.8 6.6-13.4 9.4-16.6 1.8-2.2 3.4-3.3 4.9-3.3.7 0 2.3.6 4.9 1.7-.2-1.2.1-1.9 1-2.1h2.8c1.7 0 2.5.3 2.5.9 0 .1-.1.4-.2 1-.1.5-.2 1.1-.2 1.5 0 1.4 0 3.1.1 5.2 0 2.1.1 3.5.1 4.2 0 4.8-1.3 8.2-4 10.1-2.4 1.8-5.2 2.6-8.2 2.6-1.6 0-4.3-.4-8-1.3-.7 1.2-1.4 3.6-2.2 7.1-1.1 4.5-1.6 8.4-1.5 11.8 0 2 .7 3 1.9 3 .5 0 1.1-.1 1.8-.4 4.5-1.6 10.8-6.5 18.9-14.6.5-.5 1-.8 1.5-.8.7 0 1.1.4 1.1 1.1.1.6-.1 1-.5 1.5zm-6.8-25.9c0-1.5-.3-2.3-1-2.3-.4 0-1.1.3-1.9.9-3.8 3.1-7.2 8.5-10.1 16.2.8.1 2.1.2 4.1.4 3.2.1 5.5-.6 7.1-2.2 1.2-1.2 1.8-3.1 1.9-5.8-.1 2-.1-.4-.1-7.2zM493.5 98.6c.1 4.7-2.5 7.9-7.8 9.6-.7 1.6-1.3 2.8-1.9 3.4-.9.9-2.2 1.5-4 1.6-1.1.1-2.3 0-3.6-.2-2.3-.4-5.1-.8-8.5-1.3-.9-.2-1.5-.7-1.7-1.7.2-1.1 1.3-1.7 3.3-1.9 2.8-.2 6.9-.7 12.3-1.5 2-.5 3.5-1.6 4.3-3.5.5-.9.8-2.1.8-3.5 0-2.5-1.2-6.8-3.7-13-2.4-6.1-3.6-10.1-3.4-12.1.3-4.9 4.8-8.3 13.5-10.2.9-.2 1.3.1 1.3.9 0 .5-.3.8-.9 1.1-4.2 1.8-6.3 4.1-6.3 6.8 0 1.1.2 2.4.6 4 .4 1.6 1.6 5.4 3.5 11.4 1.4 4.5 2.1 7.8 2.2 10.1zm9.3-33.7c0 1.8-.5 4.6-1.4 8.4-.4 1.3-.7 2.2-1.2 2.6-.2.2-.9.5-2 .9-1.4.5-2.3.8-2.7.8-.6 0-.9-.4-.9-1.2 0-.4.1-1 .2-1.7.9-3.9 1.3-6.6 1.1-8.1-.2-1.5.2-2.5 1.3-2.8 1.9-1 3.1-1.5 3.7-1.5 1.3.1 1.9 1 1.9 2.6z"/>
</svg>
